<?xml version="1.0" standalone="no"?><!DOCTYPE svg PUBLIC "-//W3C//DTD SVG 1.1//EN" "http://www.w3.org/Graphics/SVG/1.1/DTD/svg11.dtd"><svg t="1772282361809" class="icon" viewBox="0 0 1024 1024" version="1.1" xmlns="http://www.w3.org/2000/svg" p-id="8453" xmlns:xlink="http://www.w3.org/1999/xlink" width="64" height="64"><path d="M278.528 517.12c74.752-149.504 139.264-271.36 142.336-271.36 4.096 0 45.056 75.776 91.136 168.96s87.04 171.008 91.136 174.08c5.12 2.048 24.576-30.72 46.08-74.752 29.696-63.488 33.792-79.872 21.504-81.92-27.648-6.144-5.12-22.528 31.744-22.528 32.768 0 48.128 14.336 23.552 22.528-8.192 3.072 4.096 37.888 31.744 95.232 23.552 51.2 59.392 126.976 78.848 168.96s37.888 79.872 40.96 84.992c2.048 4.096-79.872 7.168-183.296 7.168H505.856l-39.936-81.92c-26.624-55.296-43.008-77.824-51.2-71.68-6.144 5.12-26.624 41.984-46.08 80.896l-34.816 72.704H143.36l135.168-271.36z" fill="#0D86F6" p-id="8454"></path><path d="M657.408 424.96c-65.536-28.672-76.8-116.736-20.48-163.84 43.008-35.84 93.184-34.816 132.096 4.096 39.936 40.96 40.96 91.136 2.048 133.12-34.816 37.888-69.632 46.08-113.664 26.624z" fill="#FF4051" p-id="8455"></path></svg>