<?xml version="1.0" standalone="no"?><!DOCTYPE svg PUBLIC "-//W3C//DTD SVG 1.1//EN" "http://www.w3.org/Graphics/SVG/1.1/DTD/svg11.dtd"><svg t="1772282805984" class="icon" viewBox="0 0 1024 1024" version="1.1" xmlns="http://www.w3.org/2000/svg" p-id="12890" xmlns:xlink="http://www.w3.org/1999/xlink" width="64" height="64"><path d="M99.84 274.048L512 36.053333l412.16 237.994667v475.904L512 987.946667l-412.16-237.994667V274.048zM512 134.613333L412.586667 192 512 249.386667 611.413333 192 512 134.613333z m184.746667 106.666667L512 347.946667l-184.746667-106.666667L227.84 298.666667 512 462.72 796.16 298.666667l-99.413333-57.386667z m142.08 131.285333L554.666667 536.618667v328.106666l99.84-57.6v-213.077333l184.32-106.453333V372.565333z m0 213.589334l-98.986667 57.173333v114.517333l98.986667-57.173333v-114.517333z m-653.653334-98.56l184.32 106.453333v213.077333l99.84 57.6v-328.106666L185.173333 372.565333v115.029334z m0 98.56v114.56l98.986667 57.173333v-114.602667l-98.986667-57.173333z" fill="#000000" p-id="12891"></path></svg>