<?xml version="1.0" standalone="no"?><!DOCTYPE svg PUBLIC "-//W3C//DTD SVG 1.1//EN" "http://www.w3.org/Graphics/SVG/1.1/DTD/svg11.dtd"><svg t="1772283792836" class="icon" viewBox="0 0 1444 1024" version="1.1" xmlns="http://www.w3.org/2000/svg" p-id="14000" xmlns:xlink="http://www.w3.org/1999/xlink" width="90.25" height="64"><path d="M722.488889 512m-512 0a512 512 0 1 0 1024 0 512 512 0 1 0-1024 0Z" fill="#0B70DD" p-id="14001"></path><path d="M625.777778 816.924444a1806.222222 1806.222222 0 0 0 413.582222 54.044445h48.355556a512 512 0 0 0 88.177777-122.311111 1360.782222 1360.782222 0 0 1-523.377777-40.391111 1529.742222 1529.742222 0 0 1-436.337778-170.666667l-5.688889-3.982222a512 512 0 0 0 26.737778 145.635555A1794.275556 1794.275556 0 0 0 625.777778 816.924444z" fill="#0D67B7" p-id="14002"></path><path d="M1260.088889 421.546667L1221.404444 398.222222a512 512 0 0 1 13.084445 113.777778v27.875556c84.195556 59.733333 101.831111 103.537778 97.848889 119.466666-13.653333 56.888889-254.862222 113.777778-648.533334 18.204445a1529.742222 1529.742222 0 0 1-436.337777-170.666667C131.982222 434.631111 110.364444 382.293333 113.777778 364.088889s56.888889-48.924444 142.222222-60.871111a512 512 0 0 1 75.093333-120.604445C158.72 189.44 28.444444 236.088889 3.982222 337.351111-10.808889 398.222222 9.102222 492.088889 185.457778 602.453333a1643.52 1643.52 0 0 0 469.902222 186.026667 1806.222222 1806.222222 0 0 0 413.582222 54.044444c194.56 0 345.884444-46.08 372.053334-155.875555 14.791111-60.871111-5.12-154.737778-180.906667-265.102222z" fill="#3395FF" p-id="14003"></path><path d="M227.555556 308.337778l30.151111-5.12a512 512 0 0 1 73.386666-120.604445A512 512 0 0 0 227.555556 308.337778z" fill="#2A85D8" p-id="14004"></path></svg>