<?xml version="1.0" standalone="no"?><!DOCTYPE svg PUBLIC "-//W3C//DTD SVG 1.1//EN" "http://www.w3.org/Graphics/SVG/1.1/DTD/svg11.dtd"><svg t="1772080855563" class="icon" viewBox="0 0 1044 1024" version="1.1" xmlns="http://www.w3.org/2000/svg" p-id="8926" xmlns:xlink="http://www.w3.org/1999/xlink" width="65.25" height="64"><path d="M1039.36 1014.784H6.144L484.352 0h71.68L1039.36 1014.784z" fill="#FFFFFF" p-id="8927"></path><path d="M520.704 79.872L369.664 410.112l269.824-71.68 1.536-0.512-120.32-258.048z" fill="#E9624C" p-id="8928"></path><path d="M257.024 656.896l386.048 121.856 100.352-222.72-76.288-163.328-333.312 96.256-76.8 167.936z" fill="#2A698D" p-id="8929"></path><path d="M92.672 1015.808h865.28l-183.808-393.728-102.4 232.448-442.88-136.192-136.192 297.472z" fill="#233D7E" p-id="8930"></path><path d="M484.352 0H0v1015.808h6.144L483.84 1.536l0.512-1.536z m71.168 0l0.512 1.024L1039.36 1015.808h4.096V0h-487.936z" fill="#3C3837" p-id="8931"></path></svg>