<?xml version="1.0" standalone="no"?><!DOCTYPE svg PUBLIC "-//W3C//DTD SVG 1.1//EN" "http://www.w3.org/Graphics/SVG/1.1/DTD/svg11.dtd"><svg t="1771902872853" class="icon" viewBox="0 0 1024 1024" version="1.1" xmlns="http://www.w3.org/2000/svg" p-id="15826" xmlns:xlink="http://www.w3.org/1999/xlink" width="64" height="64"><path d="M452.864 759.296l37.461333-85.76a330.325333 330.325333 0 0 1 168.106667-170.325333l103.082667-45.738667c32.768-14.549333 32.768-62.208 0-76.8l-99.84-44.288a330.538667 330.538667 0 0 1-170.538667-176l-37.973333-91.392a40.362667 40.362667 0 0 0-75.008 0l-37.930667 91.392a330.538667 330.538667 0 0 1-170.538667 176l-99.84 44.330667c-32.768 14.506667-32.768 62.208 0 76.757333l103.04 45.738667a330.325333 330.325333 0 0 1 168.106667 170.282666l37.461333 85.76a40.362667 40.362667 0 0 0 74.410667 0z m374.912 208.810667l10.538667-24.149334a186.24 186.24 0 0 1 94.762666-96l32.426667-14.464a22.613333 22.613333 0 0 0 0-41.088l-30.592-13.610666a186.368 186.368 0 0 1-96.128-99.242667l-10.837333-26.069333a21.632 21.632 0 0 0-40.192 0l-10.837334 26.026666a186.368 186.368 0 0 1-96.128 99.285334l-30.634666 13.653333a22.613333 22.613333 0 0 0 0 41.045333l32.426666 14.421334a186.24 186.24 0 0 1 94.805334 96.042666l10.538666 24.149334c7.68 17.664 32.170667 17.664 39.850667 0z" p-id="15827" fill="#1296db"></path></svg>