<?xml version="1.0" standalone="no"?><!DOCTYPE svg PUBLIC "-//W3C//DTD SVG 1.1//EN" "http://www.w3.org/Graphics/SVG/1.1/DTD/svg11.dtd"><svg t="1772082036093" class="icon" viewBox="0 0 1024 1024" version="1.1" xmlns="http://www.w3.org/2000/svg" p-id="16662" xmlns:xlink="http://www.w3.org/1999/xlink" width="64" height="64"><path d="M184.58940973 656.20225695s301.00651042-374.93793402 559.76649304-422.46527778C438.06857639 355.19574653 89.53472223 851.59244792 89.53472223 851.59244792h337.97222221s-5.28081598-15.84244792-26.40407986-15.84244791H131.78125s52.80815973-63.36979167 95.0546875-100.33550348c174.26692708-10.56163194 327.41059027-26.40407986 427.74609375-174.26692708 15.84244792-31.68489583-15.84244792-31.68489583-21.12326389-31.68489584 79.21223958-31.68489583 264.04079861-163.70529514 232.35590278-232.35590277-10.56163194-10.56163194-21.12326389-5.28081598-21.12326389-5.28081598s137.30121527-89.77387152 63.36979167-126.73958333c-63.36979167-36.96571181-237.63671875 26.40407986-237.63671875 26.40407986s10.56163194-26.40407986-26.40407986-26.40407986c-142.58203125 10.56163194-253.47916667 110.89713542-253.47916667 110.89713542s0-31.68489583-21.12326389-21.1232639C68.41145833 444.96961805 184.58940973 656.20225695 184.58940973 656.20225695z" fill="#1CBB9C" p-id="16663"></path></svg>