<?xml version="1.0" standalone="no"?><!DOCTYPE svg PUBLIC "-//W3C//DTD SVG 1.1//EN" "http://www.w3.org/Graphics/SVG/1.1/DTD/svg11.dtd"><svg t="1772277951518" class="icon" viewBox="0 0 1024 1024" version="1.1" xmlns="http://www.w3.org/2000/svg" p-id="11838" xmlns:xlink="http://www.w3.org/1999/xlink" width="64" height="64"><path d="M208.979592 1024h606.040816c115.461224 0 208.979592-93.518367 208.979592-208.979592V208.979592C1024 93.518367 930.481633 0 815.020408 0H208.979592C93.518367 0 0 93.518367 0 208.979592v606.040816c0 115.461224 93.518367 208.979592 208.979592 208.979592z" fill="#000000" p-id="11839"></path><path d="M720.979592 313.469388l125.387755-62.693878v94.040817L512 512l334.367347 167.183673v94.040817l-125.387755-62.693878c0 34.586122-28.107755 62.693878-62.693878 62.693878H240.326531c-34.586122 0-62.693878-28.107755-62.693878-62.693878V585.142857l146.285714-73.142857-146.285714-73.142857V313.469388c0-34.586122 28.107755-62.693878 62.693878-62.693878h417.959183c34.586122 0 62.693878 28.107755 62.693878 62.693878zM417.959184 559.020408L177.632653 679.183673h480.653061zM177.632653 344.816327l240.326531 120.163265L658.285714 344.816327z" fill="#FFFFFF" p-id="11840"></path></svg>