<?xml version="1.0" standalone="no"?><!DOCTYPE svg PUBLIC "-//W3C//DTD SVG 1.1//EN" "http://www.w3.org/Graphics/SVG/1.1/DTD/svg11.dtd"><svg t="1772079441005" class="icon" viewBox="0 0 1024 1024" version="1.1" xmlns="http://www.w3.org/2000/svg" p-id="16545" xmlns:xlink="http://www.w3.org/1999/xlink" width="64" height="64"><path d="M0 0m204.8 0l614.4 0q204.8 0 204.8 204.8l0 614.4q0 204.8-204.8 204.8l-614.4 0q-204.8 0-204.8-204.8l0-614.4q0-204.8 204.8-204.8Z" fill="#000000" p-id="16546"></path><path d="M534.33856 184.32c-2.8672 29.41952-9.43104 58.65984-19.09248 86.72256h98.30912V185.9072h119.9104v85.13536h123.4432v91.39712h-123.4432v58.02496h110.91456v91.40224h-110.91456v59.43296h110.91456v91.35104h-110.91456v65.33632H870.4v91.35104H507.5456V839.68H397.63456V442.8032a237.55776 237.55776 0 0 1-20.63872 14.0288l-43.48416-102.56384C378.89024 323.93728 433.93536 242.57536 433.43872 184.32h100.89984z m-242.7136 1.54112v143.4368h38.07232v110.32576h-38.07744v194.5088c12.14464-6.89664 24.88832-14.70464 38.90688-23.51616l45.7472 89.71776c-53.83168 37.0944-141.1584 80.36352-227.57376 93.53216l0.13824-110.87872c14.79168-2.26816 28.0576-4.76672 40.3968-7.58272v-235.776H148.48V329.2928h40.7552V185.86112h102.38976z m321.93024 476.78976H507.55072v65.33632h106.00448v-65.33632z m0-150.784H507.55072v59.43296h106.00448V511.86688z m0-149.4272H507.55072v58.02496h106.00448V362.4448z" fill="#D8FF02" p-id="16547"></path></svg>