<?xml version="1.0" standalone="no"?><!DOCTYPE svg PUBLIC "-//W3C//DTD SVG 1.1//EN" "http://www.w3.org/Graphics/SVG/1.1/DTD/svg11.dtd"><svg t="1772076866882" class="icon" viewBox="0 0 1024 1024" version="1.1" xmlns="http://www.w3.org/2000/svg" p-id="9233" xmlns:xlink="http://www.w3.org/1999/xlink" width="64" height="64"><path d="M512 1024H1.365546V512.000213a511.57312 511.57312 0 0 1 149.503938-362.069182A508.757121 508.757121 0 0 1 512 0.000427c141.013275 0 268.671888 57.343976 361.08785 149.930604 92.330628 92.671961 149.546604 220.671908 149.546604 362.069182s-57.087976 269.397221-149.546604 362.069183A508.629121 508.629121 0 0 1 512 1024m123.263949-560.511766l-54.229311 94.07996h188.501255c-21.546658 122.965282-128.767946 216.661243-257.535893 216.661243-144.213273 0-261.631891-117.631951-261.631891-262.229224S367.701393 249.770989 512 249.770989c77.695968 0 147.541272 34.175986 195.583919 88.277297l48.767979-84.821298a353.493186 353.493186 0 0 0-244.266565-97.706626c-196.266585 0-355.498519 159.573267-355.498518 356.479851s159.1466 356.437185 355.498518 356.437185c196.394585 0 355.498519-159.5306 355.498519-356.437185 0-16.511993-1.237333-32.639986-3.370665-48.511979z" p-id="9234" fill="#0e932e" data-spm-anchor-id="a313x.search_index.0.i12.46e33a81t0emmi" class="selected"></path></svg>