<?xml version="1.0" standalone="no"?><!DOCTYPE svg PUBLIC "-//W3C//DTD SVG 1.1//EN" "http://www.w3.org/Graphics/SVG/1.1/DTD/svg11.dtd"><svg t="1772281298735" class="icon" viewBox="0 0 1024 1024" version="1.1" xmlns="http://www.w3.org/2000/svg" p-id="7791" xmlns:xlink="http://www.w3.org/1999/xlink" width="64" height="64"><path d="M64 64m256 0l384 0q256 0 256 256l0 384q0 256-256 256l-384 0q-256 0-256-256l0-384q0-256 256-256Z" fill="#040E18" p-id="7792"></path><path d="M500.48 780.8c-28.672-2.56-49.92-7.68-49.92-12.032 0-2.048 4.352-9.472 9.728-16.896 5.376-7.424 12.544-17.664 15.872-23.296 5.376-8.96 5.632-9.728 1.024-8.448-2.56 0.768-11.776 2.816-20.224 4.096a390.528 390.528 0 0 0-24.32 5.376c-4.864 1.536-19.2 4.352-31.744 6.4-20.736 3.328-23.552 3.328-27.392-0.256-3.84-3.584-8.96-3.84-32.256-2.304-64.256 4.096-121.6-10.496-149.76-38.4-39.168-38.656-35.584-96.768 9.216-156.16 16.64-21.76 55.552-60.16 61.184-60.16 4.352 0 4.608 2.048 4.096 22.528-0.256 12.288 0.256 33.792 1.536 48.128 1.28 18.432 1.024 26.368-1.024 27.648-1.536 1.024-2.816 0.512-2.816-0.768 0-12.288-21.504 14.08-28.16 33.792-4.096 13.056-1.28 30.208 5.888 37.12 8.96 8.448 27.904 15.616 45.568 17.664 13.568 1.28 15.872 1.024 14.592-2.304-1.28-3.328 2.816-4.096 26.88-5.376 32.512-1.536 64-7.936 125.952-25.088 20.48-5.888 71.68-23.808 87.04-30.464 5.632-2.56 17.664-7.68 26.88-11.52 9.216-3.84 18.432-7.936 20.48-8.96 2.048-1.28 13.568-7.424 25.6-13.568 12.032-6.144 25.856-13.824 30.72-16.64 16.64-10.24 26.112-13.312 39.424-13.312 25.6 0 39.936 15.616 39.936 43.52 0 21.504-5.12 30.208-26.112 43.776-17.92 11.52-96.768 51.456-113.152 57.344-11.52 4.096-42.496 16.896-53.248 22.272-6.656 3.072-7.168 4.352-7.168 21.248 0 9.984 1.792 24.32 3.84 32s3.84 16.64 3.84 19.968c0 6.144 1.792 6.144-32 3.072z m278.016-227.84c-13.312-3.072-28.672-15.872-37.12-30.976-7.168-12.544-7.936-15.872-7.936-36.864 0.256-26.624 5.12-40.704 19.2-54.272 10.752-10.496 17.92-13.056 21.76-7.68 5.888 8.192 40.192-11.008 58.624-32.768 5.12-6.4 10.496-11.52 11.52-11.52 2.304 0 13.824 37.632 18.432 60.16 1.792 8.448 3.328 25.856 3.328 38.4 0 19.456-0.768 24.832-5.888 34.56-9.472 17.664-21.76 27.648-42.496 33.536a194.56 194.56 0 0 0-22.272 7.424c-5.12 2.816-5.12 2.816-17.152 0z" fill="#FFFFFF" p-id="7793"></path><path d="M468.48 634.112c0-2.048-1.792-5.12-3.84-6.912a398.208 398.208 0 0 1-25.344-35.584A386.24 386.24 0 0 1 396.8 512a140.16 140.16 0 0 0-9.472-18.432 41.6 41.6 0 0 1-5.888-13.056c0-1.792-2.56-6.144-5.632-9.472a81.216 81.216 0 0 1-11.776-18.944c-7.936-17.152-30.976-55.296-33.536-55.296-1.024 0-4.096-4.864-6.912-10.496a25.984 25.984 0 0 0-13.056-14.336c-4.608-1.792-8.448-4.352-8.448-5.632 0-4.608 22.784-32.512 40.192-49.152 45.568-44.032 114.432-71.424 179.712-71.424 24.064 0 25.856 0.256 25.856 5.12 0 2.816-1.024 5.12-2.56 5.12-1.28 0-2.56 1.536-2.56 3.584 0 3.84 18.944 39.168 24.32 45.056 6.912 7.68 22.272 47.616 23.552 61.44 2.304 24.576-8.96 74.24-26.112 113.92-2.304 5.632-6.656 15.36-9.216 21.76-2.816 6.4-6.656 14.592-8.704 18.176-7.936 14.592-19.968 52.736-19.968 63.744 0 6.4 1.792 15.36 4.352 19.968 2.304 4.608 3.84 9.216 3.072 10.496-0.768 1.024-13.312 6.144-27.648 11.264-37.376 12.8-37.888 13.056-37.888 8.704z" fill="#FE5841" p-id="7794"></path><path d="M521.984 608.768c-6.4-14.848-4.352-41.472 4.864-67.072 4.608-12.288 9.984-25.6 12.032-29.44 2.048-3.584 5.888-11.776 8.704-18.176 2.56-6.4 6.912-16.128 9.216-21.76 16.128-37.632 28.928-91.136 25.6-106.752-2.56-11.008-18.688-48.384-23.04-53.248-7.168-7.936-24.832-42.496-25.344-49.408-0.256-4.096-2.048-8.192-4.096-9.472-2.304-1.536-0.256-3.072 7.424-5.376 21.248-6.4 84.48 11.776 123.904 35.328a280.832 280.832 0 0 1 99.84 108.544c16.384 33.792 16.384 33.792 6.144 40.704-22.016 15.104-33.28 53.248-22.272 74.496 2.816 4.864 0.768 7.68-10.24 13.568-4.864 2.56-11.264 6.912-14.08 9.472-2.816 2.304-9.984 6.4-15.872 8.704-6.144 2.56-11.008 5.12-11.008 6.144s-3.072 1.536-6.912 1.024c-7.424-1.024-18.176 2.816-34.048 12.544-4.864 2.816-18.688 10.496-30.72 16.64a679.68 679.68 0 0 0-25.6 13.568c-2.048 1.024-11.264 5.12-20.48 8.96-9.216 3.84-21.248 9.216-26.88 11.776-20.224 8.704-23.04 8.704-27.136-0.768z" fill="#EC4377" p-id="7795"></path><path d="M426.24 645.376c-0.768-1.536-10.496-9.472-21.248-17.408a364.8 364.8 0 0 1-24.832-19.456 348.8 348.8 0 0 0-19.2-14.848c-7.68-5.376-33.024-28.16-56.064-50.944-23.04-22.528-43.008-40.96-44.032-40.96-1.28 0-2.304-3.328-2.304-7.68 0-5.376-1.28-7.68-4.096-7.68-3.328 0-3.072-1.28 1.28-6.656a24.128 24.128 0 0 0 5.376-12.288c0-8.96 9.984-42.496 18.432-61.696 6.144-13.824 21.248-40.96 26.368-46.848a33.92 33.92 0 0 1 9.216 3.84c8.96 4.352 17.664 12.032 17.664 15.36 0 4.352 3.072 11.008 5.12 11.008 2.816 0 26.112 38.4 34.816 57.344 3.584 7.936 7.424 14.336 8.448 14.336 1.792 0 10.752 14.08 10.752 17.152 0 1.28 2.56 6.144 5.376 11.008 3.072 4.864 5.888 10.24 6.144 11.52 1.536 7.168 12.032 31.232 15.36 34.816 2.048 2.304 2.816 4.864 1.792 5.632-0.768 1.024-0.256 1.792 1.536 1.792s2.304 1.28 1.536 2.56c-0.768 1.536-0.512 2.56 0.768 2.56s2.304 1.536 2.304 3.328c0 2.816 34.816 56.32 43.776 67.072 12.288 14.592 12.032 15.616-7.936 21.248-26.624 7.68-34.304 8.96-36.352 5.888z" fill="#FF9847" p-id="7796"></path><path d="M521.472 780.544c2.048-2.048 1.792-6.4-0.768-15.872a244.928 244.928 0 0 1-4.864-39.424c-1.024-23.808-0.768-26.368 3.328-26.368 2.56 0 5.632-1.024 7.168-2.304 2.304-2.56 32.256-15.36 50.944-22.016 5.632-2.048 25.856-11.264 44.8-20.736 37.376-18.432 35.584-18.176 88.832-20.48 36.352-1.536 49.408-0.512 49.408 4.096 0 6.144-32.512 49.664-50.688 67.584-44.032 43.776-95.488 67.84-160.512 75.52-29.44 3.584-31.232 3.584-27.648 0z" fill="#527BDF" p-id="7797"></path><path d="M445.44 770.816c-27.904-8.704-70.4-30.72-70.4-36.608 0-1.792 7.936-4.352 19.2-6.144a457.6 457.6 0 0 0 34.56-6.912c8.448-2.048 19.968-4.608 25.6-5.632 5.632-0.768 19.2-4.608 29.952-8.192 11.008-3.584 21.248-5.888 22.784-5.376 1.792 0.512-1.024 4.864-6.4 9.728a43.2 43.2 0 0 0-9.216 10.752c0 2.56-10.496 18.944-23.808 37.376-9.984 13.568-11.264 14.336-22.272 11.008z m-151.296-121.088c-14.08-24.32-16.384-29.44-24.064-53.76-3.84-12.544-7.68-22.528-8.704-22.528-1.024 0-1.792-4.864-2.048-10.752 0-6.144-0.512-24.32-1.024-40.96-1.024-28.416 0.768-37.888 5.12-30.464 1.536 2.56 2.56 2.56 4.096 0.512 1.024-2.048 4.096 0 8.448 5.888 9.728 12.8 81.408 80.896 95.232 90.368 6.4 4.352 13.824 10.24 16.64 12.8 2.816 2.816 14.08 11.52 24.832 19.456s20.48 15.872 21.248 17.408a14.4 14.4 0 0 0 6.656 4.352c3.584 1.536-1.024 3.584-16.128 7.424-43.776 11.264-60.416 14.08-90.368 15.36l-30.72 1.28-9.216-16.384z" fill="#FECB50" p-id="7798"></path><path d="M653.312 643.072c-2.56-1.792 1.024-4.864 14.08-12.032 26.624-14.848 39.168-24.064 44.544-32.768 10.496-17.664 2.816-39.168-17.92-49.664a84.736 84.736 0 0 1-12.8-7.424c-0.768-1.024 0-1.024 1.792 0s3.072 0.256 3.072-1.792 4.864-5.632 11.008-8.192c5.888-2.304 13.056-6.4 15.872-8.704 2.816-2.56 9.216-6.912 14.08-9.472 4.864-2.56 10.24-6.4 11.776-8.448 2.048-2.816 4.352-0.512 10.496 10.496a62.784 62.784 0 0 0 43.776 31.488c7.936 1.792 12.288 3.328 9.216 3.584-8.704 0.512-15.104 10.496-21.248 33.536a323.2 323.2 0 0 1-15.104 41.728c-7.168 15.872-9.728 19.456-13.056 17.92-5.12-2.56-54.272-2.304-78.336 0.256-10.24 1.024-19.456 0.768-21.248-0.512z" fill="#8F68D9" p-id="7799"></path></svg>