<?xml version="1.0" standalone="no"?><!DOCTYPE svg PUBLIC "-//W3C//DTD SVG 1.1//EN" "http://www.w3.org/Graphics/SVG/1.1/DTD/svg11.dtd"><svg t="1772189621063" class="icon" viewBox="0 0 1024 1024" version="1.1" xmlns="http://www.w3.org/2000/svg" p-id="4933" xmlns:xlink="http://www.w3.org/1999/xlink" width="64" height="64"><path d="M429.6 728c-19.2-6-41.6-32.8-41.6-50 0-20.4 12.4-19.2 22.4 2.4 4.8 11.6 11.6 18.4 20.4 22 19.2 8.4 27.6 6.8 42.8-6.4 20.4-18 24.8-41.2 16.8-86.4-9.2-54.4-36-121.6-48.4-121.6-4.4 0-21.6 43.6-30 75.2-4 15.2-5.6 16.8-16.8 16.8h-12.4l2.8-24c2.4-20 12.8-56 24.8-85.6 2.8-6.8 1.6-7.6-13.6-5.2l-16.8 2v-44.4l25.2 2 24.8 2 13.6-21.6c34.8-56.4 83.6-99.2 129.6-114 81.6-26 167.2 28 209.2 132 12.4 31.2 28.8 92.4 32 120.8 2.4 22.4 2 23.6-11.2 38-12 13.2-16.4 15.2-32.8 15.6s-20.4-1.2-30-12c-10-11.2-11.6-16.8-16-62-5.6-59.6-11.6-84.4-30.4-122.4-29.6-60-77.6-79.6-132-53.6-30 14.4-55.6 36.8-82 72.4l-20.4 27.6 14 20c25.2 37.2 50 137.2 44.8 182-6.4 55.2-46.8 91.2-88.8 78.4zM750 714c-22.4-22.4-6.4-62 24.8-62 18.4 0 37.2 18.4 37.2 36 0 30.4-40.8 47.6-62 26z" fill="#5345FF" p-id="4934"></path><path d="M216 722c-9.2-10-9.2-10.4-4.4-43.2 18-111.2 76.8-212.4 141.6-242.8 24.8-12 58.4-16 70-8.4 3.2 2-1.6 2.8-12 2.8-15.2-0.4-17.2 0.8-17.6 8.8-0.4 4.8 1.2 10 3.2 11.2 2.4 1.6 2 4-1.2 6-4 2.4-2.8 3.6 4.4 3.6 5.6 0 12.8 2 16 4 4 2.4 1.6 3.2-8.8 1.6-53.2-8.8-118.8 85.6-137.6 198.4-3.2 20.8-6.8 42-8 46.8-4.4 22-29.6 28.4-45.6 11.2z" fill="#E900FF" p-id="4935"></path><path d="M430.4 728c-18-5.6-41.6-30.8-48.8-53.6-5.6-16-6.4-28.4-4-62.8 2.8-47.6 15.6-103.6 24.4-108.8 3.2-1.6 6-5.2 6-8s-1.6-2.4-4.4 1.2c-3.2 4.4-3.6 3.6-1.2-4 1.2-5.6 4-12.8 6-16 2.8-5.2 3.2-5.2 5.6 0 1.2 3.6-1.6 17.6-6 31.6-8.4 27.2-9.6 39.2-4.8 47.2 2 3.2 6-3.2 10.8-18 4-12.4 8.8-24.4 10.8-26.4 1.6-2.4 3.2-7.2 3.2-11.6 0-10.8 10.8-20.8 17.2-15.6 6 4.8 24.4 36.8 21.2 36.8-0.8 0-6-7.2-10.8-16-9.6-17.2-17.2-20.4-20.8-8.8-1.2 3.6-6.8 20-12.4 36-13.2 36-23.2 104.4-18.8 126.8 4.8 24.8 14.8 40.8 28.8 45.6 19.6 6.8 26 5.6 42.4-8l15.2-12.8-14.8 14.8c-18 17.2-32 18.4-52.4 4.4-12.8-8.4-14-8.4-9.6-2 2.4 4.4 5.6 8 6.8 8 1.6 0 6 2.8 10.4 6.4 7.2 5.6 7.2 6-2.4 3.2-8-2-8.8-1.6-5.2 2.4 6.8 7.6 43.2 6 55.6-2 6-3.6 9.2-4.8 7.6-2-3.6 6-27.6 16-36.8 15.6-4 0-12.4-2-18.8-3.6zM517.2 636c0-12 0.8-17.2 1.6-10.8 0.8 6 0.8 15.6 0 22-0.8 6-1.6 0.8-1.6-11.2zM460 453.6c-4.4-4.8-4-7.2 2-12.8 7.2-6.4 7.2-6.4 2.4 0.4-4.4 5.6-4.4 8-0.4 12.8 2.8 3.2 4 6 2.8 6-0.8 0-4-2.8-6.8-6.4zM486.8 406c4.8-6.4 13.6-16.4 19.6-22 7.6-6.8 6-4-4 8-21.2 24.4-25.2 28.4-15.6 14zM460 380c4.4-6.4 10.4-13.2 12.8-14.4 2.8-1.6-0.4 3.6-6.4 11.6-13.6 17.6-18.4 20-6.4 2.8zM490 344c8.4-8.8 16.4-16 17.6-16s-5.2 7.2-13.6 16-16.4 16-17.6 16 5.2-7.2 13.6-16z" fill="#E900FF" p-id="4936"></path></svg>