<?xml version="1.0" standalone="no"?><!DOCTYPE svg PUBLIC "-//W3C//DTD SVG 1.1//EN" "http://www.w3.org/Graphics/SVG/1.1/DTD/svg11.dtd"><svg t="1771910629580" class="icon" viewBox="0 0 1024 1024" version="1.1" xmlns="http://www.w3.org/2000/svg" p-id="54001" xmlns:xlink="http://www.w3.org/1999/xlink" width="64" height="64"><path d="M488.66623 106.042754a249.150951 249.150951 0 0 1 68.826229-25.180328c10.072131-2.249443 31.341115-4.196721 47.574033-4.196721 101.275279-0.570754 190.531148 60.14741 228.016262 155.278688 7.000131 17.89482 8.67882 19.858885 21.554361 26.019673 18.465574 8.662033 43.914492 32.734426 53.718033 50.360655 26.288262 48.39659 20.69823 107.436066-13.714886 145.475148l-10.357508 11.482229 10.072131 12.304787c20.144262 24.626361 30.216393 52.610098 30.501771 82.809705 0 33.30518-12.590164 64.360918-36.645771 90.095213l-12.590164 13.429508 7.268722 15.947541c23.501639 53.718033 12.875541 108.00682-29.37705 148.009968a124.306885 124.306885 0 0 1-117.793573 30.484983l-6.916197-1.729049c-5.640393-1.426885-9.736393-2.467672-10.139279-2.467672-0.570754 0-4.767475 7.285508-8.964196 15.947541-10.072131 19.590295-31.324328 41.413246-51.2 52.324721-50.629246 27.412984-109.114754 19.304918-152.760656-20.983606l-11.75082-10.911476-16.501508 6.160787c-13.983475 5.036066-22.662295 6.144-57.914754 6.144l-41.681836 0.285377-8.124853-9.232787c-14.537443-16.232918-8.94741-44.485246 10.072131-52.593311 6.160787-2.518033 19.590295-3.911344 35.823214-3.911344 38.324459 0 52.307934-5.036066 73.576918-26.30505 13.714885-13.714885 18.465574-20.69823 21.82295-32.465836 13.429508-45.039213-5.87541-88.970492-48.128-108.544l-15.947541-7.554098-153.314623-1.410098-153.6-1.393312-8.108065-9.232787c-11.48223-12.875541-11.48223-30.216393 0-43.075147l8.108065-9.232787 153.6-1.410099 153.314623-1.393311 15.947541-7.554098c42.25259-19.590295 61.557508-63.521574 48.128-108.560787-3.357377-11.75082-8.108066-18.750951-21.537573-32.163672-6.832262-6.832262-11.566164-11.952262-17.156197-15.830033-18.062689-12.523016-45.123148-12.052984-180.089705-13.547017L140.06977 416.314754l-8.108065-9.232787c-11.48223-12.875541-11.48223-30.216393 0-43.091934l8.108065-9.232787 153.6-1.393312 153.314623-1.393311 15.947541-7.554098c42.25259-19.590295 61.557508-63.521574 48.128-108.560787-3.357377-11.75082-8.108066-18.750951-21.537573-32.180459-22.108328-21.822951-34.698492-26.573639-72.468984-26.57364-17.62623 0-31.055738-1.393311-37.216525-3.911344-19.019541-8.124852-24.609574-36.37718-10.072131-52.610098l8.124853-9.232787 32.449049-0.839344c17.911607-0.553967 38.895213 0.285377 46.717902 1.964065 13.714885 3.072 15.108197 2.80341 31.626491-6.429377z m240.891803 88.970492c-24.340984-24.626361-49.235934-39.18059-81.131017-47.288656-15.376787-3.911344-61.826098-5.321443-75.540983-2.232656-10.340721 2.232656-32.163672 9.786754-32.163672 10.911476 0 0.553967 4.465311 6.983344 10.340721 14.268852 11.196852 15.108197 24.340984 41.967213 27.42977 56.790033 1.577967 8.393443 2.148721 12.925902 4.700328 15.393574 3.357377 3.189508 10.038557 2.920918 26.624 3.072 32.734426 0 50.646033 6.160787 76.380328 25.465705l16.786885 12.590164 9.232787-8.124853a132.498885 132.498885 0 0 1 41.698623-24.609574l13.429508-5.036065-7.554098-14.268853c-4.196721-7.839475-17.911607-24.340984-30.216393-36.931147zM668.873443 370.15082c-2.80341-22.108328-12.875541-39.734557-27.983738-49.521312-8.94741-6.160787-15.376787-7.822689-29.931016-8.678819-25.465705-1.107934-34.967082 4.196721-47.842623 27.144393-5.590033 9.803541-15.947541 24.072393-23.216263 31.626492-7.285508 7.554098-13.160918 14.537443-13.160918 15.376787 0 0.839344 7.000131 8.964197 15.393574 18.196983 16.232918 17.340852 24.055607 30.770361 32.449049 53.986623l4.767476 14.000263 26.288262-0.839345c30.787148-1.124721 52.610098 4.750689 76.951082 20.983607 27.127607 17.89482 42.52118 40.557115 53.986623 79.166951 5.036066 16.786885 8.393443 23.233049 17.911606 32.180459 17.62623 17.072262 43.931279 22.947672 64.075541 14.554229 60.701377-25.751082 47.557246-111.07882-18.465573-118.347541-14.55423-1.678689-18.750951-3.642754-26.30505-11.196852-7.839475-7.554098-9.232787-10.911475-9.232786-22.108328 0-11.180066 1.393311-14.55423 9.232786-22.376918 5.87541-5.87541 13.144131-10.072131 19.590295-10.911476 5.590033-0.839344 14.537443-2.249443 19.573509-3.072 23.787016-3.642754 44.770623-31.055738 44.485246-58.200131-0.26859-18.196984-3.357377-26.590426-15.108197-39.734557-29.377049-33.859148-84.203016-25.180328-101.275279 15.947541-2.518033 5.87541-4.482098 14.268852-4.482098 19.304918 0 18.196984-12.858754 34.983869-28.252328 36.091803-14.268852 1.124721-19.590295-0.285377-27.983738-7.822688-7.554098-6.714754-9.232787-10.911475-11.465442-25.751082z m2.518032 217.104787c-5.321443-20.144262-16.501508-34.681705-32.734426-43.075148-20.144262-10.072131-61.557508-6.160787-61.557508 5.87541 0 8.94741-22.930885 48.950557-36.091803 63.504787-7.822689 8.393443-14.268852 15.393574-14.268853 15.393574s6.160787 6.983344 14.000263 15.376786C588.548197 696.118557 595.833705 772.196721 558.61718 832.629508l-10.072131 16.232918 6.160787 6.714754c16.232918 17.340852 53.718033 20.429639 75.255607 6.160787 6.160787-4.196721 14.839607-13.429508 19.036327-20.715016 7.268721-12.590164 7.822689-15.108197 7.268722-41.127869l-0.839344-27.412984 9.518163-9.518164c8.108066-8.108066 11.465443-9.518164 22.930886-9.518164 12.321574 0 14.000262 0.839344 28.269114 15.678951 26.019672 26.859016 50.914623 33.003016 78.612984 19.019541a60.063475 60.063475 0 0 0 21.268984-90.095213c-6.160787-7.822689-8.67882-8.94741-20.144263-8.94741-7.285508 0-20.715016-1.947279-29.947803-4.196721-47.271869-12.304787-81.684984-47.842623-94.560524-97.632525z" fill="#000000" p-id="54002"></path><path d="M68.154754 478.42623c-20.144262 10.072131-23.77023 38.609836-6.983344 54.272l7.268721 6.714754 180.459017 0.839344 180.459016 0.570754 9.518164-9.518164c8.393443-8.393443 9.518164-11.180066 9.518164-23.501639 0-15.108197-7.285508-26.019672-20.983607-31.324328-4.482098-1.678689-72.183607-2.80341-178.511737-2.80341-154.153967 0-172.065574 0.553967-180.727607 4.750689zM257.846557 724.068721c-7.554098 4.196721-16.501508 19.304918-16.501508 27.983738 0 8.67882 8.393443 22.662295 16.518295 27.429771 7.268721 4.196721 17.89482 4.750689 89.809836 4.750688h81.684984l9.518164-9.518164c8.108066-8.108066 9.518164-11.465443 9.518164-22.662295 0-11.180066-1.410098-14.537443-9.518164-22.662295l-9.518164-9.518164h-81.970361c-65.75423 0.285377-83.649049 1.124721-89.524459 4.196721z" fill="#000000" p-id="54003"></path></svg>