<?xml version="1.0" standalone="no"?><!DOCTYPE svg PUBLIC "-//W3C//DTD SVG 1.1//EN" "http://www.w3.org/Graphics/SVG/1.1/DTD/svg11.dtd"><svg t="1772079008056" class="icon" viewBox="0 0 1024 1024" version="1.1" xmlns="http://www.w3.org/2000/svg" p-id="15210" xmlns:xlink="http://www.w3.org/1999/xlink" width="64" height="64"><path d="M803.1909 1017.952189c-0.927971 3.935877-4.991844 6.015812-11.999625 6.015812H657.27546c-7.967751 0-14.975532-3.487891-20.991344-10.591669l-220.921096-281.111215-61.790069 58.622168v218.073185c0 10.015687-4.991844 15.007531-14.975532 15.007531H234.88866c-10.079685 0-15.103528-4.991844-15.103528-15.007531V15.071529C219.785132 5.11984 224.808975 0 234.88866 0h103.708759c9.983688 0 14.975532 5.11984 14.975532 15.071529v611.948877l264.663729-267.607638c7.03978-7.03978 14.07956-10.495672 21.11934-10.495672h138.203681c6.143808 0 10.079685 2.55992 12.15962 7.67976 1.951939 6.367801 1.439955 10.87966-1.535952 13.43958l-279.67126 270.679542 291.670885 362.964657c4.063873 4.447861 4.991844 8.863723 2.975907 15.263523z" fill="#20BEFF" p-id="15211"></path></svg>