<?xml version="1.0" standalone="no"?><!DOCTYPE svg PUBLIC "-//W3C//DTD SVG 1.1//EN" "http://www.w3.org/Graphics/SVG/1.1/DTD/svg11.dtd"><svg t="1771906843907" class="icon" viewBox="0 0 1024 1024" version="1.1" xmlns="http://www.w3.org/2000/svg" p-id="34951" xmlns:xlink="http://www.w3.org/1999/xlink" width="64" height="64"><path d="M469.344 990.4c-112.96-9.984-220.736-60.96-297.824-140.48-77.344-80-116.608-158.304-135.392-270.272-4.896-29.024-5.6-98.304-1.216-126.848 10.496-70.496 33.92-137.344 65.856-188.8C191.264 118.08 343.232 32 510.08 32c71.232 0 135.392 12.928 197.12 40 53.92 23.68 113.184 65.856 152.96 109.056 62.176 67.552 94.144 125.12 117.568 211.968 18.56 68.544 19.008 164.896 1.44 232.96-19.744 75.392-46.592 129.28-94.88 189.056-41.952 52.192-86.08 89.024-144.16 120.256-60.992 32.96-117.344 49.28-188.576 55.136-34.88 2.912-48.288 2.912-82.208 0z m86.112-244.384c11.968-5.12 21.216-19.52 21.216-33.44 0-23.904 4.64-50.976 10.752-62.944 12.448-24.384 29.024-32.928 79.264-40.736 19.52-2.912 39.52-7.04 44.416-9.024 13.888-6.08 25.376-17.792 32.928-34.144 6.816-14.88 7.072-16.32 7.072-54.4-0.256-42.208-1.696-51.456-16.32-89.28-21.76-56.832-78.816-113.408-135.424-133.92a400.224 400.224 0 0 0-50.496-12.672c-26.816-4.384-31.936-4.64-55.104-1.952-45.856 5.344-74.176 14.4-105.888 33.408-20 12.192-21.44 13.44-45.6 37.312-35.392 34.88-53.664 68.8-64.896 119.552-19.52 89.024 15.872 182.944 90.016 239.552 30.976 23.648 76.352 42.688 109.28 45.856 28.288 2.912 68.32 1.216 78.784-3.2z" fill="#3A25DD" p-id="34952"></path></svg>