<?xml version="1.0" standalone="no"?><!DOCTYPE svg PUBLIC "-//W3C//DTD SVG 1.1//EN" "http://www.w3.org/Graphics/SVG/1.1/DTD/svg11.dtd"><svg t="1772280406483" class="icon" viewBox="0 0 1024 1024" version="1.1" xmlns="http://www.w3.org/2000/svg" p-id="22888" data-spm-anchor-id="a313x.search_index.0.i4.51c33a81aItUP1" xmlns:xlink="http://www.w3.org/1999/xlink" width="64" height="64"><path d="M497.777778 8.533333c-14.791111 18.204444 7.395556 46.08 27.306666 33.564445C544.426667 29.582222 537.6 0 514.844444 0c-5.688889 0-13.084444 3.982222-17.066666 8.533333zM440.888889 56.888889c-125.724444 14.791111-243.484444 84.764444-327.68 193.991111C68.835556 308.906667 18.773333 415.288889 20.48 448.853333c0 7.395556 0.568889 7.395556 2.844444 0.568889 1.706667-4.551111 7.964444-25.031111 14.791112-45.511111 13.653333-43.804444 43.235556-102.4 51.768888-102.4 3.413333 0 3.982222-1.706667 2.275556-3.413333-6.257778-6.826667 27.875556-50.062222 71.68-92.16 89.315556-85.333333 188.871111-131.413333 304.355556-141.653334 22.755556-1.706667 42.666667-5.688889 44.373333-7.964444 3.413333-5.688889-18.773333-5.688889-71.68 0.568889z" p-id="22889"></path><path d="M445.44 101.831111c-10.24 2.275556-23.324444 14.791111-38.684444 35.84l-22.755556 32.426667 29.582222-13.653334c16.497778-7.395556 44.942222-15.36 63.146667-17.635555 31.857778-3.982222 32.426667-3.413333 32.426667 10.24 0 12.515556-3.982222 15.36-26.737778 21.048889-27.875556 7.395556-77.937778 37.546667-96.142222 58.595555l-10.808889 12.515556 17.066666-12.515556C439.182222 193.422222 474.453333 176.355556 498.915556 176.355556c8.533333 0 9.671111 2.844444 7.395555 18.204444-2.275556 10.24-3.982222 18.773333-4.551111 18.773333-8.533333 1.706667-86.471111 44.373333-125.155556 68.266667-76.8 47.217778-100.124444 54.044444-176.355555 52.906667l-63.715556-1.137778 58.026667-1.706667 58.026667-2.275555 21.617777-24.462223C298.097778 277.617778 345.884444 210.488889 341.902222 210.488889c-1.706667 0-45.511111 18.773333-98.417778 42.097778-52.337778 22.755556-101.262222 43.804444-108.088888 45.511111-10.808889 3.413333-11.946667 6.257778-7.395556 15.36 7.395556 13.084444-1.706667 33.564444-14.222222 33.564444-4.551111 0-13.084444 9.671111-19.342222 21.048889-48.355556 95.004444-53.475556 256.568889-10.808889 347.022222l11.946666 25.031111 32.995556-32.426666c55.182222-54.613333 70.542222-95.004444 105.813333-276.48C249.742222 349.866667 250.88 347.022222 264.533333 346.453333c7.964444-0.568889 16.497778-0.568889 19.342223 0s11.946667-1.137778 21.048888-4.551111c13.084444-4.551111 15.36-3.982222 12.515556 2.844445-1.706667 4.551111-5.688889 7.964444-9.671111 7.395555-3.413333-0.568889-11.377778-0.568889-17.635556 0-9.671111 0.568889-10.24 1.706667-2.844444 6.257778 7.395556 5.12 3.982222 7.964444-6.826667 6.257778-2.844444 0-4.551111 2.844444-4.551111 7.395555s-1.706667 13.084444-3.413333 18.773334c-2.844444 8.533333-2.275556 8.533333 2.844444 1.706666 9.102222-12.515556 7.395556 1.137778-1.706666 14.222223-3.982222 6.257778-11.946667 40.96-17.066667 76.8-12.515556 84.195556-29.013333 148.48-46.08 182.044444-14.791111 29.582222-59.164444 72.248889-80.782222 77.368889-6.826667 2.275556-11.377778 5.688889-9.671111 8.533333 1.706667 2.844444 5.12 3.982222 7.964444 2.275556 2.844444-1.706667 6.826667 0 9.102222 3.413333 2.275556 4.551111 1.706667 5.12-2.275555 2.844445-4.551111-2.844444-6.826667 0-6.826667 7.395555 0 5.688889-1.137778 14.222222-2.844444 18.773333-2.275556 5.12 14.791111 16.497778 51.2 34.702223 29.582222 14.791111 54.044444 24.462222 54.044444 22.186666 0-2.844444-3.982222-17.635556-8.533333-32.995555-10.808889-35.271111-10.808889-35.84 1.137777-34.133334 6.826667 1.137778 12.515556 11.946667 18.773334 36.408889 4.551111 19.342222 11.377778 36.977778 14.222222 39.822223 5.688889 5.12 147.911111 69.404444 153.031111 69.404444 1.706667 0-10.808889-27.306667-27.875555-60.871111-34.702222-68.266667-45.511111-112.071111-40.391112-162.702222 3.982222-38.115556 14.222222-60.871111 35.84-77.937778 19.342222-14.791111 22.186667-7.964444 10.24 21.048889l-9.102222 21.617778 18.773334-17.635556c42.097778-39.253333 58.595556-43.804444 93.866666-25.031111 14.791111 7.964444 23.324444 9.102222 30.72 5.12 18.204444-9.102222 18.204444-16.497778 0.568889-13.084445-13.084444 2.844444-19.911111 0.568889-29.013333-8.533333-6.826667-6.826667-16.497778-11.377778-22.186667-10.808889-6.257778 1.137778-9.671111-2.275556-9.671111-9.671111 0-9.102222 3.413333-10.808889 15.928889-9.671111l16.497778 1.706667-2.275556-71.68c-1.137778-55.751111-3.413333-72.817778-10.24-76.8-14.791111-9.671111-98.417778-6.826667-112.64 3.413333-12.515556 8.533333-13.084444 8.533333-9.102222-7.395556 7.395556-31.288889 31.857778-87.04 36.977778-83.626666 2.844444 1.706667 3.413333-0.568889 1.706666-5.12s0-10.24 3.982223-13.084445c4.551111-2.844444 5.688889-1.706667 2.275555 3.413334-2.844444 4.551111-2.275556 6.257778 1.706667 3.413333 3.413333-2.275556 5.12-7.395556 3.413333-11.377778-3.413333-9.102222 32.995556-42.097778 58.595556-52.337778 39.822222-17.066667 88.746667-9.671111 124.586666 17.635556 20.48 15.36 54.044444 76.8 67.128889 123.448889 11.946667 41.528889 11.946667 40.391111-9.102222 27.306667-18.773333-11.377778-65.991111-15.36-93.866667-7.964445-17.066667 4.551111-21.048889 18.773333-9.102222 31.857778 9.102222 10.24 9.671111 10.24 25.031111-6.826667 18.204444-19.342222 46.648889-23.324444 65.422222-7.964444 10.808889 8.533333 10.808889 9.102222-0.568888 4.551111-23.324444-8.533333-40.391111-8.533333-51.2-0.568889-10.808889 8.533333-10.808889 9.102222 4.551111 15.928889 10.808889 5.12 19.342222 5.12 28.444444 1.137778 6.826667-2.844444 22.186667-4.551111 34.133333-2.844445 16.497778 1.706667 21.048889 5.12 21.617778 14.791111 1.706667 28.444444-2.844444 43.235556-26.737778 87.04-13.653333 26.168889-25.031111 50.631111-25.031111 55.751111 0 5.688889-6.826667 3.413333-25.031111-8.533333-25.031111-17.066667-37.546667-21.048889-37.546666-12.515555 0 2.844444 10.24 9.102222 22.186666 14.222222 12.515556 5.688889 31.288889 20.48 42.666667 32.426666 11.377778 12.515556 20.48 21.617778 20.48 20.48 0-1.137778-3.982222-13.084444-8.533333-26.168888-4.551111-13.653333-7.395556-25.6-6.257778-27.306667 1.706667-1.137778 10.808889 3.413333 20.48 10.24 28.444444 19.911111 36.408889 41.528889 36.408889 98.417778l-0.568889 50.062222-36.977778 75.093333c-21.048889 41.528889-35.84 75.662222-32.995556 76.8 3.982222 1.706667 22.186667-6.257778 123.448889-52.906666l35.271111-16.497778 9.671112-36.408889c8.533333-31.857778 19.911111-47.786667 27.875555-39.822222 1.706667 1.706667-2.275556 17.635556-8.533333 35.84-6.257778 18.204444-10.808889 34.133333-9.671111 35.271111 1.137778 1.137778 27.306667-9.671111 58.026666-24.462222 41.528889-19.342222 54.044444-27.306667 48.924445-32.426667-3.413333-3.413333-6.257778-10.24-6.257778-15.36 0-5.688889-5.688889-9.671111-17.635556-10.24-65.991111-5.12-114.346667-66.56-130.275555-166.115556-9.671111-62.008889-10.24-62.577778-10.808889-30.72-1.137778 55.751111 25.6 134.826667 58.026667 171.804445 15.36 17.066667 3.413333 16.497778-27.306667-1.137778-26.168889-15.36-51.2-48.355556-59.733333-77.937778-3.413333-10.808889-5.688889-61.44-5.688889-113.208889 0-105.813333-6.826667-145.635556-34.133334-199.111111l-17.635555-34.133333 21.617778 9.102222c41.528889 17.635556 48.355556 19.342222 69.973333 19.342222 25.031111 0 30.151111 6.257778 36.408889 42.666667 2.275556 12.515556 7.964444 40.391111 13.084444 61.44l8.533334 38.684444 42.666666-61.44c23.324444-33.564444 46.08-65.422222 50.631111-70.542222 4.551111-4.551111 7.964444-10.24 7.964445-11.946666 0-1.706667-35.271111-4.551111-77.937778-5.688889-76.231111-1.706667-79.644444-2.844444-121.742222-22.186667-23.893333-11.377778-62.008889-33.564444-85.333333-48.924444-23.324444-15.928889-54.044444-33.564444-68.835556-40.391112-23.893333-10.24-27.306667-14.222222-27.306667-29.013333 0-14.222222 2.275556-17.635556 13.084445-17.635555 18.773333 0 72.248889 26.737778 95.004444 47.217777l19.911111 18.204445-19.911111-21.617778c-22.186667-24.462222-47.786667-39.253333-84.195555-48.924444-19.911111-5.688889-23.893333-9.102222-23.893334-20.48 0-10.808889 2.844444-14.222222 13.084445-14.222223 19.342222 0 72.248889 16.497778 93.866666 29.013334 22.755556 13.084444 22.186667 11.377778-7.395555-30.151111-19.911111-29.013333-24.462222-31.857778-48.355556-35.271112-22.755556-3.413333-26.737778-2.275556-35.84 10.808889-13.653333 18.204444-34.133333 18.204444-46.08 0-9.671111-14.222222-16.497778-15.928889-44.373333-9.102222zM138.808889 366.364444c5.12 6.257778 5.12 9.102222-0.568889 12.515556-3.982222 2.275556-5.688889 2.275556-3.413333-0.568889 2.275556-2.275556 1.706667-7.964444-1.706667-12.515555-3.413333-3.982222-5.12-7.395556-3.413333-7.395556 1.137778 0 5.688889 3.413333 9.102222 7.964444z m28.444444 39.822223c6.257778 7.964444 3.413333 8.533333-15.36 3.982222-2.275556-0.568889 4.551111-11.946667 6.826667-11.946667 1.137778 0 5.12 3.413333 8.533333 7.964445z m14.791111 21.617777c2.275556 1.706667 1.137778 5.12-1.706666 6.826667-2.844444 1.706667-8.533333-0.568889-11.946667-4.551111-5.688889-6.257778-5.12-7.964444 1.706667-6.826667 5.12 0.568889 10.24 2.844444 11.946666 4.551111z m257.137778 19.342223c8.533333 7.964444 12.515556 13.084444 9.102222 10.808889-3.982222-1.706667-7.395556-0.568889-7.395555 2.275555 0 3.413333 5.12 6.257778 11.377778 6.257778 14.222222 0 26.737778 21.048889 17.635555 30.151111-3.413333 3.413333-6.257778 10.808889-6.257778 16.497778s-4.551111 17.066667-9.671111 25.6c-9.102222 13.653333-11.946667 24.462222-14.222222 50.062222-1.706667 14.791111-22.755556 32.995556-28.444444 23.893333-2.275556-3.982222-4.551111-13.084444-4.551111-21.048889-0.568889-7.964444-5.688889-23.324444-11.946667-34.133333-8.533333-15.36-10.24-16.497778-7.395556-5.688889 1.706667 7.964444 5.688889 16.497778 8.533334 19.911111 2.844444 2.844444 5.12 7.964444 5.12 10.808889 0 3.413333-6.257778-3.413333-14.222223-14.791111s-14.222222-22.755556-14.222222-24.462222c0-2.275556-3.982222-7.395556-8.533333-11.946667-9.671111-10.24-11.946667-39.253333-2.275556-32.995555 4.551111 2.844444 4.551111 0.568889 0-7.964445-3.413333-6.257778-6.257778-14.222222-6.257777-17.066666 0-6.257778 14.222222-5.688889 20.48 0.568888s19.342222 4.551111 19.342222-2.275555c0-3.413333-3.982222-5.12-7.964445-3.413333-5.688889 2.275556-7.395556 0.568889-5.12-4.551112 2.275556-6.257778 5.688889-6.826667 13.084445-2.844444 14.222222 7.964444 24.462222 7.395556 36.977778-2.275556 10.808889-7.964444 10.808889-8.533333-3.982223-14.791111-11.377778-5.688889-19.911111-5.688889-34.133333-0.568889-17.066667 5.688889-17.635556 5.12-7.964444-2.275555 16.497778-12.515556 34.702222-10.24 52.906666 6.257778z m-246.328889-4.551111c1.706667 2.844444-0.568889 5.12-5.12 5.12s-6.826667-2.275556-5.12-5.12c1.706667-2.275556 3.982222-4.551111 5.12-4.551112 1.137778 0 3.413333 2.275556 5.12 4.551112z m15.36 25.031111c2.844444 5.688889 2.275556 8.533333-2.844444 8.533333-4.551111 0-6.826667-3.982222-4.551111-8.533333 1.706667-5.688889 0.568889-7.395556-3.413334-4.551111-3.413333 1.706667-7.395556 1.137778-9.102222-1.706667-2.275556-2.844444 0.568889-4.551111 5.688889-3.982222 5.12 0.568889 11.377778 5.12 14.222222 10.24z m265.102223 51.2c-1.706667 4.551111-3.413333 2.844444-3.413334-3.413334-0.568889-6.257778 1.137778-9.671111 2.844445-7.395555 1.706667 1.706667 2.275556 6.826667 0.568889 10.808889z m-358.4 150.755555c-1.137778 11.946667-2.275556 3.413333-2.275556-18.204444 0-22.186667 1.137778-31.288889 2.275556-21.617778 1.137778 10.24 1.137778 28.444444 0 39.822222z m128.568888 27.306667c-1.706667 5.12-4.551111 7.964444-5.688888 6.257778-1.706667-1.706667-1.137778-5.12 1.137777-8.533334 5.12-9.102222 8.533333-7.395556 4.551111 2.275556z m-18.204444 21.617778c-5.688889 5.12-6.257778 4.551111-2.844444-3.413334 1.706667-5.688889 5.12-8.533333 6.826666-6.826666 1.706667 1.706667 0 6.257778-3.982222 10.24z m-59.164444 18.773333c-1.706667 1.706667-6.826667 2.275556-10.808889 0.568889-4.551111-1.706667-2.844444-3.413333 3.413333-3.413333 6.257778-0.568889 9.671111 1.137778 7.395556 2.844444z m21.617777 7.964444c-1.706667 2.844444-6.257778 5.688889-9.102222 5.688889-3.413333 0-3.982222-2.844444-2.275555-5.688889 1.706667-3.413333 6.257778-5.688889 9.102222-5.688888 3.413333 0 3.982222 2.275556 2.275555 5.688888z" p-id="22890" data-spm-anchor-id="a313x.search_index.0.i10.51c33a81aItUP1" class="selected" fill="#13227a"></path><path d="M363.52 518.826667c-2.275556 3.982222-2.275556 5.688889 0.568889 3.413333 2.275556-2.275556 7.964444 0 12.515555 5.688889 7.395556 8.533333 7.395556 8.533333 1.706667-3.413333-6.826667-14.222222-9.102222-15.36-14.791111-5.688889zM366.933333 118.897778c-47.786667 15.36-97.848889 42.666667-135.964444 74.524444-28.444444 23.893333-38.115556 28.444444-57.457778 28.444445-21.617778 0-24.462222 2.275556-48.924444 35.271111-26.168889 35.271111-26.168889 35.84-11.946667 37.546666 7.964444 1.137778 60.871111-18.773333 129.137778-48.355555l114.915555-50.062222 26.168889-36.408889c14.791111-20.48 29.013333-40.391111 31.288889-44.373334 6.257778-10.24-8.533333-9.102222-47.217778 3.413334zM612.693333 112.64c1.137778 2.275556 14.222222 22.755556 29.582223 44.373333l27.875555 40.391111 76.231111 32.995556c41.528889 18.204444 74.524444 34.133333 73.386667 35.271111-1.137778 1.137778-23.324444-7.395556-49.493333-18.773333-96.711111-41.528889-86.471111-38.684444-78.506667-23.893334 13.653333 26.168889 41.528889 64.853333 60.871111 85.333334l20.48 21.617778h61.44c64.853333 0 64.853333 0 60.871111-27.306667-0.568889-2.275556-15.928889-10.24-34.702222-17.635556-18.204444-7.395556-32.426667-14.222222-31.288889-15.36 1.137778-1.137778 17.635556 3.982222 36.977778 11.946667 40.391111 16.497778 69.404444 19.342222 58.026666 5.688889-3.413333-4.551111-4.551111-11.377778-2.275555-14.791111 2.275556-3.982222 1.706667-5.12-1.706667-3.413334-2.844444 1.706667-14.791111-7.964444-26.737778-21.617777-17.066667-21.048889-24.462222-25.6-40.391111-25.6-14.222222 0-29.013333-7.395556-56.888889-28.444445-46.08-34.702222-89.315556-57.457778-141.653333-73.386666-43.804444-13.653333-44.942222-13.653333-42.097778-7.395556zM435.2 290.133333c-5.12 3.413333-5.688889 5.688889-1.706667 5.688889 3.413333 0 8.533333-2.844444 10.24-5.688889 4.551111-6.826667 2.275556-6.826667-8.533333 0zM91.591111 316.871111c-2.275556 5.12 0 13.084444 5.12 18.204445 7.395556 7.964444 9.671111 7.964444 17.635556-0.568889 5.12-5.12 7.964444-13.653333 6.257777-18.204445-4.551111-11.946667-24.462222-11.377778-29.013333 0.568889z" p-id="22891"></path><path d="M907.377778 315.733333c-5.12 6.257778-5.688889 10.808889-1.706667 14.791111 9.671111 9.671111 27.306667 3.413333 27.306667-9.102222 0-14.222222-15.928889-17.635556-25.6-5.688889zM959.146667 335.644444c7.964444 17.635556 10.808889 20.48 10.808889 13.653334 0-3.413333-3.982222-10.808889-9.102223-17.066667-7.964444-10.24-7.964444-10.24-1.706666 3.413333zM911.928889 529.066667l-1.706667 184.888889-1.137778-178.062223c-1.137778-97.28-3.982222-177.493333-6.257777-177.493333-2.275556 0.568889-25.6 34.133333-51.2 75.093333l-47.786667 74.524445 12.515556 48.355555c17.066667 68.266667 34.702222 102.4 76.231111 146.773334l35.84 38.684444 12.515555-32.426667c20.48-55.751111 25.031111-83.626667 25.031111-157.582222 0-79.644444-9.102222-123.448889-35.84-175.786666l-16.497777-31.857778-1.706667 184.888889zM14.791111 469.902222c0 6.257778 1.706667 7.964444 3.413333 3.413334 1.706667-3.982222 1.137778-9.102222-0.568888-10.808889-1.706667-2.275556-3.413333 1.137778-2.844445 7.395555zM14.791111 571.733333c0 19.911111 1.137778 21.048889 6.257778 10.808889 3.982222-8.533333 3.982222-15.928889-0.568889-22.755555-5.12-9.102222-5.688889-6.826667-5.688889 11.946666zM998.4 571.733333c0 7.964444 2.844444 14.222222 5.688889 14.222223 3.413333 0 5.688889-6.257778 5.688889-14.222223s-2.275556-14.222222-5.688889-14.222222c-2.844444 0-5.688889 6.257778-5.688889 14.222222zM16.497778 657.066667c1.706667 19.911111 11.946667 46.648889 35.271111 92.16 18.204444 35.271111 34.702222 61.44 36.977778 58.026666 2.275556-3.982222 8.533333 0 16.497777 10.808889 8.533333 11.377778 15.928889 15.928889 22.186667 13.653334 7.964444-2.844444 7.964444-1.706667 1.706667 5.688888-5.12 6.257778-5.688889 10.24-1.137778 13.084445 2.844444 1.706667 5.688889 0.568889 5.688889-2.844445s2.844444-4.551111 5.688889-2.844444c3.413333 2.275556 3.982222 6.826667 2.275555 10.24-2.275556 3.982222-2.275556 5.12 0.568889 2.844444 5.688889-5.12 63.146667 47.217778 60.871111 55.182223-1.137778 2.844444 0 3.982222 1.706667 1.706666 5.688889-5.688889 26.737778 6.257778 22.755556 12.515556-1.706667 2.844444-0.568889 6.257778 2.844444 8.533333 2.844444 1.706667 5.688889 1.137778 5.688889-1.706666 0-3.413333 5.12-4.551111 11.377778-2.844445 6.257778 1.706667 11.377778 7.395556 11.377777 12.515556 0 5.12 3.413333 13.084444 7.395556 17.066666 5.688889 5.688889 4.551111 8.533333-3.982222 15.36-9.671111 6.826667-9.671111 7.964444-2.275556 7.964445 17.066667 0 16.497778-9.671111-2.844444-67.697778L237.795556 859.022222l-62.008889-30.151111c-34.133333-16.497778-65.991111-29.013333-71.68-27.875555-17.635556 3.413333-54.613333-58.026667-76.8-129.706667-13.084444-42.097778-13.084444-42.097778-10.808889-14.222222zM1002.951111 642.844444c-1.706667 4.551111-7.395556 23.893333-13.084444 42.666667-5.12 18.773333-18.204444 51.2-28.444445 71.68-10.808889 21.048889-17.635556 39.822222-15.928889 41.528889 4.551111 3.982222 36.977778-58.595556 47.217778-90.453333 3.982222-12.515556 9.671111-25.6 12.515556-29.582223 2.844444-3.413333 4.551111-15.36 3.413333-25.6-1.137778-10.808889-3.413333-15.36-5.688889-10.24zM446.577778 657.066667c-62.577778 36.408889-70.542222 54.044444-62.577778 141.084444 6.826667 69.404444 14.791111 91.022222 65.991111 170.097778 34.702222 53.475556 39.822222 56.32 109.795556 53.475555 51.2-1.706667 62.008889-3.982222 94.435555-19.911111 43.804444-21.617778 85.902222-65.991111 104.106667-109.795555 6.826667-16.497778 9.102222-26.168889 5.12-21.048889-3.413333 5.12-9.671111 7.964444-13.653333 6.826667-3.413333-1.137778-37.546667 11.377778-75.662223 27.306666l-68.835555 30.151111-26.737778 39.822223c-14.791111 21.617778-30.72 40.96-35.271111 42.666666-4.551111 1.137778 0.568889-7.964444 11.377778-21.048889 10.808889-12.515556 33.564444-48.355556 50.062222-80.213333 29.013333-55.182222 30.151111-59.164444 36.408889-124.586667 6.257778-65.422222 6.257778-68.266667-6.257778-88.177777-6.826667-10.808889-25.031111-28.444444-40.391111-38.115556-26.737778-17.066667-34.133333-18.773333-76.8-16.497778-6.257778 0.568889-18.773333-1.137778-28.444445-2.844444-12.515556-2.844444-23.324444 0-42.666666 10.808889z m69.973333 9.671111c8.533333-0.568889 24.462222-1.137778 35.84-2.275556 38.115556-2.275556 70.542222 47.786667 70.542222 108.657778v24.462222l-25.031111-32.995555c-38.684444-52.906667-51.2-62.008889-83.626666-62.577778-28.444444-0.568889-28.444444 0-67.697778 42.097778l-39.822222 42.097777v-22.186666c0-31.857778 9.102222-58.595556 26.737777-77.368889 19.911111-21.048889 34.702222-27.306667 52.906667-22.755556 7.964444 2.275556 21.048889 3.413333 30.151111 2.844445z m31.857778 81.351111c32.426667 35.271111 31.857778 51.768889-6.257778 116.622222l-29.582222 50.631111-27.306667-46.648889c-14.791111-25.6-28.444444-53.475556-30.151111-61.44-3.982222-18.773333 6.257778-47.217778 15.36-41.528889 3.413333 2.275556 4.551111 1.706667 2.275556-2.275555-5.688889-9.102222 24.462222-40.96 39.253333-40.96 7.964444 0 21.617778 9.671111 36.408889 25.6z" p-id="22892" data-spm-anchor-id="a313x.search_index.0.i5.51c33a81aItUP1" class="selected" fill="#13227a"></path><path d="M92.16 760.604444c-7.395556 6.826667-3.982222 23.324444 5.688889 26.737778 11.377778 4.551111 25.031111-10.808889 20.48-22.755555-2.844444-7.964444-19.911111-10.808889-26.168889-3.982223zM909.653333 764.586667c-5.12 13.653333 2.275556 27.306667 13.084445 25.031111 13.653333-2.275556 13.653333-29.582222 0-31.857778-5.12-1.137778-11.377778 2.275556-13.084445 6.826667zM904.533333 807.253333c-15.928889 5.688889-48.924444 20.48-73.955555 32.426667l-44.942222 22.186667-12.515556 40.96c-6.826667 22.755556-9.671111 41.528889-6.826667 41.528889s3.413333 2.844444 1.137778 6.826666c-2.275556 3.982222-1.706667 4.551111 2.844445 2.275556 3.413333-2.275556 5.12-6.257778 3.982222-8.533334-1.706667-2.275556 2.275556-6.826667 7.964444-10.808888 6.826667-3.982222 11.946667-4.551111 14.222222-1.137778 1.706667 3.413333 0 5.688889-3.982222 5.688889-5.688889 0-5.688889 1.137778-0.568889 4.551111 4.551111 2.844444 1.137778 6.826667-10.24 11.946666-9.102222 3.982222-16.497778 9.671111-16.497777 12.515556 0 2.844444 8.533333 0 18.773333-5.688889 13.084444-7.395556 18.204444-14.222222 18.204444-25.031111 0-11.377778 5.688889-19.342222 22.186667-30.151111 11.946667-7.964444 29.013333-22.755556 38.115556-32.995556 9.102222-9.671111 15.928889-15.36 15.36-11.946666-1.137778 2.844444 0.568889 6.826667 3.413333 8.533333 5.12 2.844444 57.457778-67.128889 53.475555-71.111111-1.137778-1.137778-14.791111 2.844444-30.151111 7.964444z m-12.515555 37.546667c-1.706667 5.12-4.551111 7.964444-5.688889 6.257778-1.706667-1.706667-1.137778-5.12 1.137778-8.533334 5.12-9.102222 8.533333-7.395556 4.551111 2.275556zM154.168889 872.106667c1.706667 5.688889 5.12 8.533333 6.826667 6.826666 1.706667-1.706667 0-6.257778-3.982223-10.24-5.688889-5.12-6.257778-4.551111-2.844444 3.413334zM263.395556 874.382222c3.413333 1.137778 5.688889 5.12 3.413333 7.964445-1.706667 2.844444 0 5.12 3.413333 5.12s5.12 2.275556 2.844445 5.688889c-9.671111 15.36 56.32 85.902222 101.831111 107.52 23.893333 11.946667 72.817778 23.324444 98.986666 23.324444h13.653334l-18.204445-18.773333c-9.671111-9.671111-24.462222-30.151111-32.426666-44.373334-14.222222-24.462222-18.204444-27.306667-90.453334-58.026666-41.528889-17.635556-79.075556-32.426667-83.057777-31.857778-5.688889 0-5.688889 1.137778 0 3.413333z" p-id="22893"></path><path d="M867.555556 878.364444c0 5.688889-2.275556 7.964444-6.826667 5.688889-3.413333-2.275556-4.551111-1.706667-2.844445 1.706667 2.275556 3.413333 0 7.964444-5.12 9.671111-4.551111 1.706667-6.826667 6.257778-5.12 9.671111 2.275556 3.413333 0.568889 5.12-3.413333 4.551111-4.551111-0.568889-12.515556 0.568889-18.204444 3.413334-7.964444 3.413333-8.533333 5.688889-3.413334 11.946666 7.964444 9.671111-1.137778 10.24-11.946666 0.568889-6.826667-5.688889-6.826667-5.12-1.137778 2.275556 3.413333 5.12 4.551111 10.808889 2.275555 13.653333-2.275556 2.275556 1.137778 1.706667 7.395556-1.706667 21.048889-10.808889 60.871111-59.164444 54.613333-65.422222-4.551111-4.551111-6.257778-3.413333-6.257777 3.982222zM233.244444 950.044444c1.706667 2.844444 6.257778 5.688889 9.102223 5.688889 3.413333 0 3.982222-2.844444 2.275555-5.688889-1.706667-3.413333-6.257778-5.688889-9.102222-5.688888-3.413333 0-3.982222 2.275556-2.275556 5.688888z" p-id="22894"></path></svg>