<?xml version="1.0" standalone="no"?><!DOCTYPE svg PUBLIC "-//W3C//DTD SVG 1.1//EN" "http://www.w3.org/Graphics/SVG/1.1/DTD/svg11.dtd"><svg t="1771999342186" class="icon" viewBox="0 0 1024 1024" version="1.1" xmlns="http://www.w3.org/2000/svg" p-id="10743" xmlns:xlink="http://www.w3.org/1999/xlink" width="64" height="64"><path d="M118.153846 0c67.387077 73.137231 139.421538 142.611692 209.801846 212.992 5.750154 112.836923-0.708923 226.146462 3.465846 339.219692 1.378462 17.565538 21.661538 21.937231 36.233847 21.464616 107.047385 0.236308 214.134154 0.236308 321.220923 0 71.995077 70.892308 141.666462 144.029538 214.370461 213.700923-218.781538-3.702154-437.563077-0.472615-656.541538-1.575385-31.625846-1.181538-63.684923 2.756923-95.074462-2.126769-19.377231-3.426462-33.004308-21.897846-32.295384-41.275077C118.390154 495.222154 120.516923 247.611077 118.153846 0zM118.153846 836.096c9.255385 9.885538 18.510769 19.810462 28.16 29.302154 2.087385 33.910154 0 67.820308 0.945231 102.006154 0.236308 6.695385 6.695385 10.358154 12.681846 10.830769 10.633846 0.472615 20.992-0.472615 31.625846 0.472615 9.924923 8.073846 18.235077 18.432 27.923693 26.978462-28.632615-0.472615-57.225846 0-86.09477-0.236308-8.073846 0.236308-15.675077-6.892308-15.202461-15.202461 0-51.712 0.433231-102.951385 0-154.151385z m184.398769 168.920615c8.310154-0.236308 17.329231 1.142154 24.930462-2.756923 0.905846-2.796308 1.851077-5.356308 2.520615-8.11323 1.181538 0.472615 3.229538 1.181538 4.411077 1.378461 7.128615 8.782769 19.377231 10.161231 29.774769 11.539692 12.445538-0.433231 25.363692-4.135385 33.87077-13.587692 17.132308-19.613538 18.747077-48.049231 12.996923-72.231385a52.381538 52.381538 0 0 0-27.726769-34.658461c-17.998769-6.419692-39.699692-2.756923-53.090462 11.342769-0.905846-20.322462 0.236308-40.841846-0.669538-61.164308a214.449231 214.449231 0 0 0-27.254154 0.236308c0.236308 55.611077 0.236308 111.694769 0.236307 168.014769z m73.846154-89.088c8.310154 7.876923 9.452308 20.086154 9.688616 30.916923-0.236308 10.397538-2.520615 22.606769-11.776 28.829539-14.532923 10.397538-38.990769 3.938462-43.59877-14.296615-5.986462-18.235077-2.520615-44.977231 18.707693-51.2 8.979692-2.363077 20.086154-1.654154 26.978461 5.750153z m248.989539 89.088c8.073846-0.708923 17.565538 2.048 24.49723-3.229538 2.284308-1.851077 2.048-5.12 2.993231-7.876923 1.142154 0.472615 3.465846 1.181538 4.608 1.614769 7.168 8.782769 19.377231 10.161231 29.774769 11.539692 12.445538-0.433231 25.363692-4.135385 33.910154-13.587692 17.092923-19.613538 18.707692-48.049231 12.918154-72.231385a52.657231 52.657231 0 0 0-27.687384-34.855384 52.539077 52.539077 0 0 0-53.563077 11.067077c-0.196923-20.322462 0.275692-40.605538-0.196923-60.928a136.861538 136.861538 0 0 0-27.451077 0.472615c0.433231 55.847385 0.196923 111.931077 0.196923 168.014769z m72.940307-90.230153c8.073846 6.459077 10.161231 17.526154 10.633847 27.214769 0.433231 10.397538-0.945231 22.134154-8.113231 30.247384-13.587692 14.532923-42.220308 8.743385-47.261539-11.106461-6.025846-18.235077-2.56-45.213538 18.668308-51.436308 8.782769-1.614769 19.140923-1.378462 26.072615 5.080616z m74.31877-6.025847c-3.938462 9.019077-8.546462 17.998769-11.815385 27.451077h26.348308c5.513846-14.769231 11.303385-29.538462 16.856615-44.307692 5.041231-9.452308 5.750154-21.661538 13.390769-29.302154 1.575385 6.931692 4.332308 13.627077 7.128616 20.322462 5.986462 15.911385 12.012308 31.625846 18.235077 47.53723 0.472615 1.378462 1.614769 4.371692 2.087384 5.986462 8.979692 0 17.998769-0.236308 26.978462 0-1.575385-3.229538-3.229538-6.222769-4.608-9.452308-12.681846-30.208-26.545231-60.258462-38.990769-90.702769-8.073846 0.236308-16.147692 0.236308-24.024616 0-10.633846 24.260923-21.228308 48.443077-31.586461 72.467692z m104.290461 27.687385c8.782769-0.236308 17.526154-0.236308 26.308923 0 0-33.476923-0.236308-66.678154 0-100.155077-8.782769 0.236308-17.762462 0.236308-26.545231 0 0.472615 33.476923 0.236308 66.717538 0.236308 100.155077z m-434.766769 48.718769c0 3.465846 0.472615 7.128615 0.945231 10.633846 2.756923 5.750154 8.979692 8.743385 15.438769 8.979693 27.963077 0.236308 56.083692-0.236308 84.243692 0.236307-9.019077-8.546462-17.762462-17.329231-26.072615-26.308923-13.390769-2.56-27.254154 0.669538-40.644923-2.323692-1.378462-1.614769-2.756923-3.229538-4.135385-4.608-2.323692-35.328 0.472615-71.089231-1.378461-106.377846-9.019077-9.924923-19.180308-18.904615-28.16-28.868923 0 49.624615-0.472615 99.249231-0.236308 148.637538z m-202.830769 19.613539h27.687384a10722.540308 10722.540308 0 0 1 0-121.856h-27.687384v121.856z m323.072 0h27.687384a10722.500923 10722.500923 0 0 1 0-121.856h-27.451077c-0.236308 40.605538-0.236308 81.211077-0.236307 121.856z" p-id="10744" fill="#1296db"></path></svg>