<?xml version="1.0" standalone="no"?><!DOCTYPE svg PUBLIC "-//W3C//DTD SVG 1.1//EN" "http://www.w3.org/Graphics/SVG/1.1/DTD/svg11.dtd"><svg t="1771906960674" class="icon" viewBox="0 0 1024 1024" version="1.1" xmlns="http://www.w3.org/2000/svg" p-id="37272" xmlns:xlink="http://www.w3.org/1999/xlink" width="64" height="64"><path d="M0 0h1024v1024H0z" fill="#070609" p-id="37273"></path><path d="M605.61408 202.97728l-94.65856 53.08416-93.30688-55.43936 1.35168-108.52352 94.67904-53.08416 93.30688 55.43936-1.37216 108.52352zM605.30688 927.00672l-94.65856 53.08416-93.30688-55.43936 1.35168-108.52352 94.65856-53.08416 93.30688 55.43936-1.35168 108.52352z" fill="#025EF6" p-id="37274"></path><path d="M854.7328 599.10144l62.50496 37.13024-1.37216 108.52352-94.65856 53.08416-93.30688-55.43936 0.9216-74.1376-153.68192-88.71936-68.73088 38.54336-93.30688-55.43936 0.90112-71.82336-156.71296-90.48064-35.59424 19.94752v176.20992l66.8672 39.7312-1.37216 108.52352-94.65856 53.08416-93.30688-55.43936 1.37216-108.52352 61.44-34.44736v-180.89984l-62.81216-37.31456 1.37216-108.52352 94.65856-53.08416 93.30688 55.43936-0.94208 73.9328 154.86976 89.41568 66.64192-37.35552 93.30688 55.43936-0.88064 69.44768 157.77792 91.09504 35.75808-20.0704v-175.8208l-67.19488-39.91552 1.35168-108.52352 94.67904-53.08416 93.30688 55.43936-1.37216 108.52352-61.1328 34.28352v181.248z" fill="#FFFFFF" p-id="37275"></path></svg>