<?xml version="1.0" standalone="no"?><!DOCTYPE svg PUBLIC "-//W3C//DTD SVG 1.1//EN" "http://www.w3.org/Graphics/SVG/1.1/DTD/svg11.dtd"><svg t="1771905616729" class="icon" viewBox="0 0 1024 1024" version="1.1" xmlns="http://www.w3.org/2000/svg" p-id="17140" xmlns:xlink="http://www.w3.org/1999/xlink" width="64" height="64"><path d="M902.41024 327.63904h-86.75328V64L533.7088 302.57152V67.3792h-43.4176v232.63232L230.03136 61.44v266.19904H121.58976V718.0288h108.42112V962.56l260.3008-238.7968v232.81664h43.37664V729.55904l260.28032 232.07936V718.0288h108.42112V327.68z m-130.1504-170.10688v170.06592h-201.05216l201.05216-170.0864z m-498.83136 2.49856l182.80448 167.60832h-182.84544V160.03072h0.04096zM164.98688 674.65216V371.01568h294.62528l-229.5808 229.5808v74.05568H164.9664z m108.4416 189.2352V618.55744l216.86272-216.8832v263.24992l-216.8832 199.00416v-0.04096z m477.12256 0.94208L533.7088 671.45728V401.65376l216.8832 216.8832v246.29248z m108.48256-190.17728h-65.06496v-74.0352L564.36736 371.01568h294.66624v303.63648z" fill="#000000" p-id="17141"></path></svg>