<?xml version="1.0" standalone="no"?><!DOCTYPE svg PUBLIC "-//W3C//DTD SVG 1.1//EN" "http://www.w3.org/Graphics/SVG/1.1/DTD/svg11.dtd"><svg t="1772105679682" class="icon" viewBox="0 0 1024 1024" version="1.1" xmlns="http://www.w3.org/2000/svg" p-id="9979" xmlns:xlink="http://www.w3.org/1999/xlink" width="64" height="64"><path d="M550.997333 862.08c15.189333 48.981333-35.114667 92.672-81.536 70.826667l-159.104-74.794667 203.349334-117.205333 37.290666 121.173333zM312.789333 182.826667c-33.450667 211.2-37.12 431.786667-55.466666 644.906666V278.570667c0-26.069333 10.410667-47.914667 28.586666-68.693334l26.88-27.050666zM398.421333 100.437333a98.474667 98.474667 0 0 1 125.184 17.066667l243.413334 267.562667a98.261333 98.261333 0 0 1-22.186667 150.4l-179.498667 107.605333L398.421333 100.437333z" p-id="9980" data-spm-anchor-id="a313x.search_index.0.i0.6e8f3a8161KVIY" class="" fill="#d4237a"></path><path d="M496.341333 684.416L257.28 827.733333V278.570667c0-26.069333 10.410667-47.914667 28.586667-68.693334l5.632-5.674666 43.690666-43.562667 161.109334 523.776z" p-id="9981" data-spm-anchor-id="a313x.search_index.0.i1.6e8f3a8161KVIY" class="selected" fill="#13227a"></path></svg>