<?xml version="1.0" standalone="no"?><!DOCTYPE svg PUBLIC "-//W3C//DTD SVG 1.1//EN" "http://www.w3.org/Graphics/SVG/1.1/DTD/svg11.dtd"><svg t="1771917765145" class="icon" viewBox="0 0 1024 1024" version="1.1" xmlns="http://www.w3.org/2000/svg" p-id="65180" xmlns:xlink="http://www.w3.org/1999/xlink" width="64" height="64"><path d="M0 0m149.588041 0l724.823918 0q149.588041 0 149.588041 149.588041l0 724.823918q0 149.588041-149.588041 149.588041l-724.823918 0q-149.588041 0-149.588041-149.588041l0-724.823918q0-149.588041 149.588041-149.588041Z" fill="#3978AD" p-id="65181"></path><path d="M69.913916 68.886526v651.365506s250.426407-29.126518 250.426407 215.443764V319.312933c0-232.960771-250.426407-250.426407-250.426407-250.426407" fill="#D8D8D8" p-id="65182"></path><path d="M187.190529 23.116284v573.129728s138.235377 26.660781 138.235376 271.282432 0.719173-455.031203 0.719174-586.074847C326.145079 48.544196 187.190529 23.116284 187.190529 23.116284M329.946423 313.456807v592.804255s120.204675-336.7272 625.629377 97.088391c0-157.242099 0.976021-553.763419 0.976021-684.807063-499.568576-363.953045-626.605398-5.034213-626.605398-5.034213" fill="#FFFFFF" p-id="65183"></path><path d="M389.226849 755.697h111.985552l36.164142-249.296278h1.130129l99.40002 249.296278h44.845591l103.971907-249.296278h1.130129l31.592255 249.296278h112.653356l-65.547507-432.993679h-111.985552l-93.08157 231.419685-87.893247-231.419685H462.736631l-73.509782 432.993679z" fill="#3978AD" p-id="65184"></path></svg>