<?xml version="1.0" standalone="no"?><!DOCTYPE svg PUBLIC "-//W3C//DTD SVG 1.1//EN" "http://www.w3.org/Graphics/SVG/1.1/DTD/svg11.dtd"><svg t="1771918802546" class="icon" viewBox="0 0 1024 1024" version="1.1" xmlns="http://www.w3.org/2000/svg" p-id="76425" xmlns:xlink="http://www.w3.org/1999/xlink" width="64" height="64"><path d="M227.84 110.816c-27.712 0-50.176 22.432-50.176 50.144v167.168c0 27.68 22.464 50.144 50.176 50.144H512V160.96c0-27.712-22.464-50.144-50.144-50.144zM512 378.24v267.456h284.16c27.712 0 50.176-22.464 50.176-50.144v-167.168c0-27.68-22.464-50.144-50.176-50.144z m0 267.456H227.84c-27.712 0-50.176 22.464-50.176 50.144v167.168c0 27.68 22.464 50.144 50.176 50.144h234.016c27.68 0 50.144-22.464 50.144-50.144z" fill="#FF6D00" p-id="76426"></path></svg>