<?xml version="1.0" standalone="no"?><!DOCTYPE svg PUBLIC "-//W3C//DTD SVG 1.1//EN" "http://www.w3.org/Graphics/SVG/1.1/DTD/svg11.dtd"><svg t="1771919047621" class="icon" viewBox="0 0 1024 1024" version="1.1" xmlns="http://www.w3.org/2000/svg" p-id="79876" xmlns:xlink="http://www.w3.org/1999/xlink" width="64" height="64"><path d="M1023.685454 754.977391c-3.161043-11.753739-4.051478-24.086261-6.967652-35.951304-6.745043-27.091478-20.23513-53.047652-36.173913-75.731478l-162.682435-164.975305c-0.890435-4.719304 2.114783-2.404174 4.897391-3.027478 14.402783-3.116522 27.870609-5.164522 42.095305-9.861565a358.934261 358.934261 0 0 0 7.346087-2.56 107.586783 107.586783 0 0 0 5.253565-2.003478l3.094261-1.246609c1.602783-0.623304 3.161043-1.29113 4.741565-2.003478a196.786087 196.786087 0 0 0 14.981565-7.168l3.940174-2.114783a215.952696 215.952696 0 0 0 31.721739-21.325913 214.016 214.016 0 0 0 22.149565-20.72487c0.022261 0 0.044522 0 0.066783-0.089043 1.602783-1.736348 3.205565-3.517217 4.763826-5.298087a261.030957 261.030957 0 0 0 8.481391-10.462609 191.176348 191.176348 0 0 0 11.798261-17.074087 183.05113 183.05113 0 0 0 9.126957-16.027826 160.278261 160.278261 0 0 0 3.917913-7.924869l1.001739-2.114783a233.071304 233.071304 0 0 0 12.243478-32.901565c0.26713-0.845913 0.512-1.669565 0.734609-2.515478l0.690087-2.515479c0.556522-1.981217 1.068522-3.940174 1.558261-5.965913a287.632696 287.632696 0 0 0 5.253565-28.249043c0.111304-0.667826 0.178087-1.402435 0.26713-2.137044 0.089043-0.512 0.133565-1.090783 0.178087-1.647304 0.133565-0.934957 0.222609-1.892174 0.333913-2.849391a292.752696 292.752696 0 0 0 1.157566-15.204174v-0.489739a119.963826 119.963826 0 0 0 0.178086-5.832348 239.705043 239.705043 0 0 0-0.26713-19.611826l-0.133565-2.738087-0.289391-4.229565a239.771826 239.771826 0 0 0-0.979479-10.150957 177.307826 177.307826 0 0 0-1.424695-10.729739 191.131826 191.131826 0 0 0-1.157566-6.90087l-0.556521-2.960695c-0.311652-1.691826-0.667826-3.361391-1.024-5.053218a271.204174 271.204174 0 0 0-6.277566-23.841391c0-0.133565-0.066783-0.24487-0.111304-0.356174a196.563478 196.563478 0 0 0-4.608-13.312 180.691478 180.691478 0 0 0-4.140522-10.262261 59.481043 59.481043 0 0 0-1.313391-3.005217 239.86087 239.86087 0 0 0-5.253565-11.130435c-0.489739-0.957217-0.957217-1.914435-1.469218-2.849391-0.823652-1.625043-1.714087-3.227826-2.604521-4.830609a189.106087 189.106087 0 0 0-8.904348-14.870261 220.070957 220.070957 0 0 0-23.997218-30.697739l-3.227826-3.383652a68.563478 68.563478 0 0 0-2.404174-2.448696 69.38713 69.38713 0 0 0-2.448695-2.381913 186.546087 186.546087 0 0 0-9.371826-8.503652c-0.601043-0.512-1.157565-1.024-1.78087-1.513739a191.020522 191.020522 0 0 0-5.632-4.563478 185.433043 185.433043 0 0 0-14.469565-10.351305 196.986435 196.986435 0 0 0-15.582609-9.216l-2.470956-1.335652a206.202435 206.202435 0 0 0-22.861913-10.24 209.296696 209.296696 0 0 0-20.702609-6.767304h-0.044522a266.907826 266.907826 0 0 0-4.964174-1.313392L847.268063 6.945391c-1.26887-0.311652-2.537739-0.623304-3.82887-0.890434a186.234435 186.234435 0 0 0-5.565217-1.179827C828.212758 2.960696 816.99328 3.472696 807.844063 0H218.242671C111.412758 8.681739 16.047193 98.726957 2.66841 205.022609A8942.85913 8942.85913 0 0 0 0.019367 442.991304c0 119.629913 1.246609 239.37113 0.400696 358.912 0.133565 1.892174 0.26713 3.762087 0.445217 5.609739 0.066783 1.001739 0.178087 1.958957 0.26713 2.938435 0.133565 1.513739 0.311652 3.005217 0.48974 4.496696 0.222609 2.048 0.489739 4.073739 0.801391 6.077217a83.878957 83.878957 0 0 0 0.667826 4.518957c0.155826 1.024 0.311652 2.048 0.512 3.049739 0.890435 5.36487 2.003478 10.618435 3.250087 15.760696l0.512 2.07026 0.690087 2.715827 1.113043 4.029217c0.512 1.825391 1.046261 3.606261 1.647305 5.38713 0.222609 0.890435 0.512 1.736348 0.823652 2.626783 0.311652 1.001739 0.645565 2.025739 1.024 3.049739 0.289391 0.957217 0.601043 1.914435 0.979478 2.849391a88.82087 88.82087 0 0 0 2.025739 5.498435l1.224348 3.116522c0.445217 1.179826 0.934957 2.337391 1.446957 3.494956l0.667826 1.558261a110.146783 110.146783 0 0 0 2.582261 5.787826 214.728348 214.728348 0 0 0 12.710956 23.329392 199.012174 199.012174 0 0 0 12.777739 18.098087 226.437565 226.437565 0 0 0 18.187131 20.324174 209.318957 209.318957 0 0 0 16.13913 14.447304 236.900174 236.900174 0 0 0 50.376348 31.076174 248.542609 248.542609 0 0 0 30.274783 11.620174c1.580522 0.512 3.205565 0.979478 4.852869 1.469217 1.625043 0.467478 3.250087 0.934957 4.897391 1.335652 1.602783 0.467478 3.272348 0.890435 4.897392 1.291131a231.290435 231.290435 0 0 0 9.750261 2.226087 262.856348 262.856348 0 0 0 45.211826 5.632 254.664348 254.664348 0 0 0 15.916521 0.155826c2.337391-0.044522 4.652522-0.133565 6.967653-0.222609l4.786087-0.289391a272.250435 272.250435 0 0 0 22.706086-2.426435 237.389913 237.389913 0 0 0 22.171827-4.34087c2.671304-0.667826 5.342609-1.313391 7.94713-2.07026l3.027478-0.845913c1.224348-0.356174 2.448696-0.690087 3.628522-1.068522 1.29113-0.378435 2.537739-0.801391 3.82887-1.202087a244.958609 244.958609 0 0 0 22.03826-8.370087c1.647304-0.734609 3.272348-1.446957 4.897392-2.203826a15.805217 15.805217 0 0 0 0.667826-0.311652 157.829565 157.829565 0 0 0 12.243478-6.144 18.877217 18.877217 0 0 1 0.690087-0.356174l3.962435-2.226087c3.272348-1.869913 6.500174-3.82887 9.705739-5.87687 1.513739-0.979478 3.005217-1.958957 4.496696-2.982956a207.137391 207.137391 0 0 0 20.724869-15.805218 203.353043 203.353043 0 0 0 14.157913-13.467826 201.46087 201.46087 0 0 0 7.880348-8.681739c0.645565-0.734609 1.29113-1.469217 1.892174-2.226087a201.705739 201.705739 0 0 0 15.916522-21.593043c1.736348-2.715826 3.428174-5.476174 5.075478-8.325566 0.801391-1.380174 1.602783-2.738087 2.359652-4.162782a206.647652 206.647652 0 0 0 10.24-20.992 215.707826 215.707826 0 0 0 7.568696-20.257391c0.222609-0.890435 0.534261-1.758609 0.801391-2.626783l1.113044-3.628522c3.873391-13.289739 5.36487-26.980174 9.972869-39.936 62.575304 59.213913 120.431304 136.45913 196.251826 179.333565 36.173913 20.48 73.883826 29.762783 110.592 29.762783a194.56 194.56 0 0 0 11.130435-0.289391l0.578783-0.022261 4.652521-0.311652 3.739826-0.311653c1.046261-0.066783 2.092522-0.178087 3.116522-0.289391l5.520696-0.690087a232.025043 232.025043 0 0 0 31.120695-6.344348 238.191304 238.191304 0 0 0 78.647653-39.001043 242.131478 242.131478 0 0 0 33.03513-29.651478 180.780522 180.780522 0 0 0 7.457391-8.347826 256.333913 256.333913 0 0 0 30.519653-44.877913l1.446956-2.738087a247.073391 247.073391 0 0 0 21.370435-58.568348l0.534261-2.404174a163.57287 163.57287 0 0 0 2.003478-10.24l0.022261-0.178087a155.959652 155.959652 0 0 0 1.357913-8.815304c0.200348-1.179826 0.333913-2.359652 0.445217-3.517218a219.648 219.648 0 0 0 1.068522-10.484869c1.090783-13.534609-0.75687-28.271304 0-41.939479z m-689.775304 40.69287c-10.195478 101.888-168.114087 105.694609-187.12487 7.724522-4.36313-193.113043-3.784348-387.33913-0.289391-580.496696 7.635478-42.340174 44.121043-75.286261 87.30713-78.514087 49.263304-3.650783 96.545391 37.086609 100.418783 86.238609L333.93241 795.670261z m146.253913-537.110261c-0.890435-23.218087-2.404174-50.109217-7.012174-72.904348-2.960696-14.558609-8.659478-27.469913-11.085913-41.850435h328.793043c84.880696 0 113.797565 119.162435 53.893565 169.71687-10.150957 8.592696-34.771478 20.012522-47.927652 20.012522h-316.772174c-0.75687-24.887652 1.001739-50.064696 0.089044-74.974609zM720.826323 852.880696L480.052758 612.173913v-134.789565h132.897392l242.910608 242.621217c77.534609 85.837913-50.131478 211.878957-135.012174 132.897392z" p-id="79877"></path></svg>