<?xml version="1.0" standalone="no"?><!DOCTYPE svg PUBLIC "-//W3C//DTD SVG 1.1//EN" "http://www.w3.org/Graphics/SVG/1.1/DTD/svg11.dtd"><svg t="1772093208682" class="icon" viewBox="0 0 1024 1024" version="1.1" xmlns="http://www.w3.org/2000/svg" p-id="5479" xmlns:xlink="http://www.w3.org/1999/xlink" width="64" height="64"><path d="M616.661333 746.24l-60.586666-15.786667v-289.152l64.853333-16.426666c35.541333-9.045333 65.450667-16.384 66.858667-16.128 1.109333 0 1.962667 79.488 1.962666 176.810666v176.810667l-6.229333-0.298667c-3.712 0-33.834667-7.338667-66.858667-15.786666zM334.250667 673.493333c0-97.28 0.853333-177.066667 2.261333-177.066666 1.152-0.298667 31.018667 7.125333 66.858667 16.128l64.554666 16.426666-0.554666 144-0.853334 143.957334-58.026666 14.976c-31.872 8.192-61.738667 15.829333-66.005334 16.682666l-8.234666 2.005334v-177.109334zM769.408 528.981333c0-321.109333 0.298667-338.346667 5.12-336.896 2.56 0.853333 27.904 7.338667 56.064 14.421334 28.16 7.338667 56.021333 14.378667 61.994667 15.786666l10.496 2.858667-0.554667 304.384-0.853333 304.64-57.728 14.72c-31.573333 8.149333-61.44 15.530667-66.005334 16.725333l-8.533333 1.92v-338.56zM120.917333 530.090667c0-166.314667 0.853333-302.378667 2.261334-302.378667 1.152 0 31.018667 7.338667 66.56 16.128l64.853333 16.384v269.610667c0 147.882667-0.554667 269.269333-1.109333 269.269333-0.853333 0-31.018667 7.68-66.858667 16.725333l-65.706667 16.64v-302.378666z" p-id="5480" fill="#1296db"></path></svg>