<?xml version="1.0" standalone="no"?><!DOCTYPE svg PUBLIC "-//W3C//DTD SVG 1.1//EN" "http://www.w3.org/Graphics/SVG/1.1/DTD/svg11.dtd"><svg t="1771918274683" class="icon" viewBox="0 0 1160 1024" version="1.1" xmlns="http://www.w3.org/2000/svg" p-id="69483" xmlns:xlink="http://www.w3.org/1999/xlink" width="72.5" height="64"><path d="M1143.534933 454.28736c-39.594667 24.576-68.266667 39.594667-101.034666 58.709333-196.608 118.784-386.389333 251.221333-532.48 424.618667l-70.997334 86.016-215.722666-344.064c47.786667 38.229333 169.301333 146.090667 218.453333 170.666667l158.378667-120.149334c110.592-77.824 423.253333-247.125333 543.402666-275.797333z" fill="#F3D25E" p-id="69484"></path><path d="M324.36224 710.956373c5.461333 4.096 9.557333 8.192 15.018667 12.288-42.325333-118.784-117.418667-237.568-223.914667-339.968h-107.861333c136.533333 98.304 243.029333 212.992 316.757333 327.68z" fill="#638BC4" p-id="69485"></path><path d="M359.860907 742.372693c4.096 4.096 9.557333 6.826667 13.653333 10.922667-6.826667-161.109333-66.901333-326.314667-181.589333-468.309333h-102.4c146.090667 135.168 236.202667 299.008 270.336 457.386666z" fill="#305CA5" p-id="69486"></path><path d="M388.519253 765.58336c16.384 13.653333 32.768 25.941333 46.421334 35.498667 35.498667-173.397333 5.461333-360.448-88.746667-522.922667 159.744-2.730667 319.488-4.096 477.866667-6.826667 35.498667 79.189333 55.978667 163.84 61.44 251.221334 13.653333-6.826667 27.306667-13.653333 42.325333-20.48-6.826667-90.112-31.402667-185.685333-79.189333-297.642667h-653.994667c141.994667 167.936 206.165333 371.370667 193.877333 561.152z" fill="#273D72" p-id="69487"></path></svg>