<?xml version="1.0" standalone="no"?><!DOCTYPE svg PUBLIC "-//W3C//DTD SVG 1.1//EN" "http://www.w3.org/Graphics/SVG/1.1/DTD/svg11.dtd"><svg t="1771906562991" class="icon" viewBox="0 0 1024 1024" version="1.1" xmlns="http://www.w3.org/2000/svg" p-id="28841" xmlns:xlink="http://www.w3.org/1999/xlink" width="64" height="64"><path d="M0 102.4a102.4 102.4 0 0 1 102.4-102.4h819.2a102.4 102.4 0 0 1 102.4 102.4v819.2a102.4 102.4 0 0 1-102.4 102.4H102.4a102.4 102.4 0 0 1-102.4-102.4V102.4z" fill="#0B1566" p-id="28842"></path><path d="M439.944533 491.588267a8.362667 8.362667 0 1 1-0.034133 16.6912 8.362667 8.362667 0 0 1 0-16.6912zM399.223467 442.436267c8.772267 10.683733 19.899733 16.5888 33.416533 17.749333a0.7168 0.7168 0 0 1 0.6144 0.512 0.750933 0.750933 0 0 1 0 0.4096 0.785067 0.785067 0 0 1-0.273067 0.375467 44.032 44.032 0 0 0-12.219733 14.574933c-3.072 5.802667-4.846933 11.946667-5.188267 18.3296a0.750933 0.750933 0 0 1-0.136533 0.4096 0.785067 0.785067 0 0 1-0.375467 0.238933 0.785067 0.785067 0 0 1-0.443733 0 0.8192 0.8192 0 0 1-0.341333-0.238933 46.7968 46.7968 0 0 0-33.450667-17.681067 0.477867 0.477867 0 0 1-0.273067-0.1024 0.477867 0.477867 0 0 1-0.170666-0.238933v-0.238933l0.170666-0.238934a46.3872 46.3872 0 0 0 17.8176-33.655466c0-0.068267 0.068267-0.136533 0.136534-0.2048a0.546133 0.546133 0 0 1 0.2048-0.170667h0.273066c0.1024 0 0.170667 0.068267 0.238934 0.170667zM596.309333 447.044267a8.362667 8.362667 0 1 1 0.034134 16.725333 8.362667 8.362667 0 0 1 0-16.725333zM555.793067 397.960533a46.148267 46.148267 0 0 0 33.3824 17.681067l0.238933 0.1024a0.546133 0.546133 0 0 1 0.170667 0.238933v0.3072a46.455467 46.455467 0 0 0-17.8176 33.416534 0.682667 0.682667 0 0 1-0.170667 0.375466 0.7168 0.7168 0 0 1-0.341333 0.273067 0.750933 0.750933 0 0 1-0.477867-0.034133 0.785067 0.785067 0 0 1-0.341333-0.273067 43.895467 43.895467 0 0 0-14.4384-12.151467 44.032 44.032 0 0 0-18.193067-5.188266 0.750933 0.750933 0 0 1-0.443733-0.1024 0.7168 0.7168 0 0 1-0.273067-0.8192 0.750933 0.750933 0 0 1 0.273067-0.341334c10.478933-8.4992 16.349867-19.592533 17.6128-33.245866 0-0.1024 0-0.170667 0.1024-0.238934a0.512 0.512 0 0 1 0.2048-0.170666h0.273066c0.1024 0 0.170667 0.1024 0.238934 0.170666z" fill="#FFFFFF" p-id="28843"></path><path d="M433.595733 254.634667c46.1824-14.1312 94.378667-2.4576 130.321067 29.525333a2.730667 2.730667 0 0 0 0.8192 0.238933 3.310933 3.310933 0 0 0 0.8192 0.136534c46.353067-12.970667 94.788267-2.3552 130.116267 30.6176 35.293867 32.938667 49.288533 80.4864 39.594666 127.658666 0 0.068267 0 0.341333 0.170667 0.8192 0.136533 0.443733 0.238933 0.682667 0.3072 0.750934 34.4064 33.655467 49.3568 80.896 38.5024 128-10.922667 47.035733-45.056 82.944-90.760533 98.0992a2.491733 2.491733 0 0 0-0.580267 0.580266l-0.546133 0.6144c-11.946667 46.626133-45.397333 83.217067-91.579734 97.348267-46.1824 14.097067-94.378667 2.4576-130.321066-29.525333a3.072 3.072 0 0 0-0.785067-0.238934 3.072 3.072 0 0 0-0.853333-0.136533c-46.353067 12.970667-94.788267 2.321067-130.082134-30.651733-35.328-32.938667-49.322667-80.4864-39.594666-127.624534l-0.170667-0.8192a3.003733 3.003733 0 0 0-0.341333-0.785066C254.293333 545.621333 239.274667 498.346667 250.197333 451.2768c10.8544-47.035733 45.056-82.944 90.7264-98.0992a4.130133 4.130133 0 0 0 0.648534-0.580267 2.6624 2.6624 0 0 0 0.477866-0.648533c11.946667-46.626133 45.397333-83.217067 91.579734-97.314133z m35.805867 197.256533c-11.0592-25.019733-38.1952-45.431467-66.4576-36.864-28.228267 8.635733-39.424 40.686933-34.645333 67.618133 1.536 8.6016 4.539733 17.851733 7.850666 28.706134 3.310933 10.8544 5.973333 20.206933 9.489067 28.194133 11.0592 25.019733 38.161067 45.397333 66.423467 36.7616 28.2624-8.6016 39.424-40.618667 34.679466-67.584-1.536-8.533333-4.573867-17.8176-7.850666-28.672-3.310933-10.8544-5.973333-20.206933-9.489067-28.16z m156.330667-44.475733c-10.990933-25.019733-38.161067-45.431467-66.389334-36.864-28.2624 8.6016-39.458133 40.618667-34.7136 67.584 1.501867 8.6016 4.539733 17.8176 7.850667 28.672 3.2768 10.8544 5.905067 20.241067 9.4208 28.228266 11.025067 25.019733 38.161067 45.431467 66.423467 36.864 28.2624-8.6016 39.458133-40.618667 34.7136-67.584-1.536-8.6016-4.539733-17.8176-7.850667-28.672-3.2768-10.922667-5.9392-20.241067-9.4208-28.228266z" fill="#FFFFFF" p-id="28844"></path></svg>