<?xml version="1.0" standalone="no"?><!DOCTYPE svg PUBLIC "-//W3C//DTD SVG 1.1//EN" "http://www.w3.org/Graphics/SVG/1.1/DTD/svg11.dtd"><svg t="1772079896328" class="icon" viewBox="0 0 1024 1024" version="1.1" xmlns="http://www.w3.org/2000/svg" p-id="17595" xmlns:xlink="http://www.w3.org/1999/xlink" width="64" height="64"><path d="M511.744 519.8336m-450.816 0a450.816 450.816 0 1 0 901.632 0 450.816 450.816 0 1 0-901.632 0Z" fill="#FF9552" p-id="17596"></path><path d="M750.4384 334.4896l-36.4544-99.4304S182.1184 208.5376 188.7232 488.5504c0 54.6816 53.8624 115.1488 225.3312 102.7072 76.2368-8.2944 201.3184-24.0128 211.2512 10.752 9.9328 34.816-86.2208 84.48-155.8016 91.9552s-157.3888 4.1472-201.2672 0c24.0128 56.32 45.568 103.5776 45.568 103.5776s222.8736 42.24 408.4224-71.2704c72.9088-45.568 128.4096-111.8208 111.0016-178.1248-17.408-66.2528-74.5472-105.216-236.9536-100.2496-115.1488 4.9664-192.2048 14.8992-198.8096-20.736-6.6048-35.4816 70.4512-94.3104 352.9728-92.672z" fill="#FFFFFF" p-id="17597"></path></svg>