<?xml version="1.0" standalone="no"?><!DOCTYPE svg PUBLIC "-//W3C//DTD SVG 1.1//EN" "http://www.w3.org/Graphics/SVG/1.1/DTD/svg11.dtd"><svg t="1771910536182" class="icon" viewBox="0 0 1024 1024" version="1.1" xmlns="http://www.w3.org/2000/svg" p-id="52946" xmlns:xlink="http://www.w3.org/1999/xlink" width="64" height="64"><path d="M289.5 837.82q97.63 0 171.99-32.36 74.36-32.36 114.66-90.82 40.3-58.47 40.3-135.66 0-89.69-56.2-147.02-56.19-57.33-161.77-82.3l-90.82-26.11q-64.71-14.76-90.82-32.92-30.65-21.57-22.7-59.04 6.81-35.19 30.09-52.78 23.28-17.59 68.68-17.59 88.55 0 158.93 18.16 51.09 13.62 87.42 34.06 19.3 10.22 27.24 18.16V63.58l-14.76-10.21q-19.3-11.36-46.54-21.57-37.46-13.63-85.15-21.57Q362.16 0.01 292.91 0.01 152.13 0.01 74.94 66.99 0.01 131.7 0.01 245.23q0 89.68 53.35 144.17 53.35 54.49 162.34 80.61l15.89 3.4 89.69 26.11q37.46 9.08 57.33 19.87 19.87 10.78 27.81 27.25 7.95 16.47 7.95 44.85 0 37.46-35.19 58.46-35.19 21.01-89.69 21.01-90.82 0-165.75-26.12-53.35-19.29-94.22-48.81Q9.08 581.27 0 569.92v185.04l6.81 9.09q11.35 10.21 27.25 20.43 21.57 13.62 51.08 24.98 37.47 12.48 84.01 20.43 54.5 7.95 120.34 7.95z m613.04-12.49q52.22 0 86.85-33.49 34.63-33.49 34.63-84.58 0-51.09-34.06-84.01t-87.42-32.92q-53.36 0-87.41 32.92-34.06 32.92-34.06 84.58 0 51.65 34.06 84.58 34.05 32.92 87.41 32.92z" fill="#666666" p-id="52947"></path></svg>