<?xml version="1.0" standalone="no"?><!DOCTYPE svg PUBLIC "-//W3C//DTD SVG 1.1//EN" "http://www.w3.org/Graphics/SVG/1.1/DTD/svg11.dtd"><svg t="1771906425048" class="icon" viewBox="0 0 1024 1024" version="1.1" xmlns="http://www.w3.org/2000/svg" p-id="24111" xmlns:xlink="http://www.w3.org/1999/xlink" width="64" height="64"><path d="M941.750857 630.016v-60.635429a12.763429 12.763429 0 0 0-2.340571-7.314285 13.238857 13.238857 0 0 0-6.217143-4.754286l-228.169143-84.809143a13.385143 13.385143 0 0 0-15.433143 4.571429l-23.149714 31.561143a12.8 12.8 0 0 0 5.302857 19.309714l152.795429 67.84a6.985143 6.985143 0 0 1 4.534857 6.473143 6.765714 6.765714 0 0 1-1.243429 3.913143 7.021714 7.021714 0 0 1-3.291428 2.523428l-332.946286 166.509714a43.812571 43.812571 0 0 1-45.714286-3.84l-220.342857-162.962285a6.948571 6.948571 0 0 1-3.072-6.546286 6.802286 6.802286 0 0 1 4.534857-5.632l75.995429-32.548571a13.165714 13.165714 0 0 0 7.497143-8.557715 12.617143 12.617143 0 0 0-2.194286-11.044571l-29.805714-38.765714a13.531429 13.531429 0 0 0-15.433143-4.278858l-145.005715 56.356572a13.129143 13.129143 0 0 0-6.070857 4.754286 12.690286 12.690286 0 0 0-2.267428 7.241142v62.061715a12.653714 12.653714 0 0 0 4.242285 9.508571l328.557715 298.605714a43.885714 43.885714 0 0 0 54.235428 3.584l439.369143-302.189714a13.092571 13.092571 0 0 0 5.632-10.971428z" fill="#028FF3" p-id="24112"></path><path d="M779.337143 114.505143l-296.484572 353.28a6.070857 6.070857 0 0 1-4.571428 2.011428 6.253714 6.253714 0 0 1-4.608-2.011428L303.542857 311.113143a13.348571 13.348571 0 0 0-17.152-0.914286l-36.937143 27.611429a12.690286 12.690286 0 0 0-2.56 17.993143l192.292572 251.392a23.296 23.296 0 0 0 18.834285 9.252571h41.764572a23.844571 23.844571 0 0 0 19.382857-9.801143L839.424 161.28a12.653714 12.653714 0 0 0-2.413714-17.444571l-38.875429-31.049143a13.348571 13.348571 0 0 0-18.834286 1.718857z" fill="#1ED161" p-id="24113"></path></svg>