<?xml version="1.0" standalone="no"?><!DOCTYPE svg PUBLIC "-//W3C//DTD SVG 1.1//EN" "http://www.w3.org/Graphics/SVG/1.1/DTD/svg11.dtd"><svg t="1771901772301" class="icon" viewBox="0 0 1024 1024" version="1.1" xmlns="http://www.w3.org/2000/svg" p-id="5956" width="64" height="64" xmlns:xlink="http://www.w3.org/1999/xlink"><path d="M425.201775 1021.572682a279.333236 279.333236 0 0 1-92.621357-32.960428 290.511676 290.511676 0 0 1-82.912083-122.387944 360.903907 360.903907 0 0 1-4.279746-153.815329c5.301774-14.883294 9.070505-17.566119 22.867894-17.566119 11.689454 0 17.566119 3.19384 21.270973 12.264345s13.286374 13.861265 34.557348 18.652025a124.815263 124.815263 0 0 1 39.922998 17.055105 118.49146 118.49146 0 0 0 31.938399 15.969199 104.757948 104.757948 0 0 1 31.938399 16.480214 104.438564 104.438564 0 0 0 38.964847 15.585939c14.883294 3.704854 27.658653 7.9846 27.658653 10.667425 0 5.876665 30.852493 21.270974 43.116838 21.270973a23.378908 23.378908 0 0 1 16.480214 9.58152 74.99136 74.99136 0 0 0 47.332707 22.356879 86.105923 86.105923 0 0 1 48.929627 24.464814 17.885503 17.885503 0 0 0 14.883294 7.473585 85.722662 85.722662 0 0 1 42.030933 19.163039 81.762301 81.762301 0 0 0 23.442785 9.58152c16.480214 3.704854 29.830464 14.883294 29.830464 23.953799a5.812789 5.812789 0 0 0 5.301774 5.876666c14.372279 0 2.107934 11.17844-28.744559 26.061733a418.584655 418.584655 0 0 1-216.031329 51.101438c-45.28865 0.766522-88.405488 0.255507-95.879073-0.830398zM71.899207 257.478428c7.9846-12.77536 21.270974-31.938399 29.830464-42.541947 15.458185-19.674054 16.480214-20.248945 52.698358-20.248945a114.147837 114.147837 0 0 1 80.357012 22.867894 57.489118 57.489118 0 0 1 4.279745 22.356879c0 13.861265-2.682826 17.055105-19.674053 22.867894a324.302502 324.302502 0 0 1-114.978236 16.480213l-46.374555 0.574892 13.861265-22.35688z" fill="#15D26C" p-id="5957"></path><path d="M409.232575 1016.781922l-46.310678-10.667425c-9.58152-2.107934-17.566119-5.876665-17.566119-7.9846s-4.79076-5.301774-10.667426-6.898694c-7.473585-1.59692-10.667425-7.473585-10.667425-16.480214 0-11.17844-2.682826-13.861265-13.286374-13.861265a17.885503 17.885503 0 0 1-17.055105-9.070505 76.652157 76.652157 0 0 0-13.286374-18.652025c-9.58152-9.58152-13.861265-46.821693-5.301774-46.821693a206.960824 206.960824 0 0 1 28.233545 36.154268 233.214188 233.214188 0 0 0 120.791024 89.938531c38.837093 13.286374 31.427384 15.458185-14.883294 4.279745z m332.606485-56.403212c-2.107934-3.19384-2.682826-6.898694-0.511014-8.495615 4.79076-4.79076-10.667425-17.055105-26.636625-20.759959a81.698424 81.698424 0 0 1-23.442784-9.581519 85.722662 85.722662 0 0 0-42.030933-19.16304 17.885503 17.885503 0 0 1-14.883294-7.473585 86.042046 86.042046 0 0 0-48.929627-24.464813 74.99136 74.99136 0 0 1-47.332707-22.35688 23.378908 23.378908 0 0 0-16.480214-9.581519c-12.264345 0-43.116838-15.458185-43.116838-21.270974 0-2.682826-12.77536-6.898694-27.658654-10.667425a104.438564 104.438564 0 0 1-38.900969-15.713692 104.694071 104.694071 0 0 0-31.938399-16.480214 104.757948 104.757948 0 0 1-31.938399-16.480214 104.438564 104.438564 0 0 0-38.837093-15.458185 99.456174 99.456174 0 0 1-30.852493-11.17844c-5.876665-9.58152-18.077134-4.79076-21.270974 8.495615-1.59692 7.473585-6.38768 13.286374-10.667425 13.286373-18.077134 0 0-80.357011 27.658653-124.495878 13.286374-20.248945 18.077134-23.953799 33.024305-24.464814s17.055105 1.59692 17.055105 13.286374 2.682826 13.286374 15.969199 13.286374a108.590556 108.590556 0 0 1 41.519919 15.9692 113.636823 113.636823 0 0 0 34.046333 15.969199 23.123401 23.123401 0 0 1 14.883294 7.9846 28.489052 28.489052 0 0 0 18.652025 7.984599 28.489052 28.489052 0 0 1 18.652024 7.9846 28.744559 28.744559 0 0 0 19.16304 7.9846 311.271635 311.271635 0 0 1 91.535451 44.138867c1.085906 2.107934 5.876665 3.704854 10.667425 3.704854a46.757816 46.757816 0 0 1 22.356879 10.667425 47.524337 47.524337 0 0 0 20.759959 10.667426 30.085972 30.085972 0 0 1 15.9692 6.898694 176.683222 176.683222 0 0 0 32.449413 16.480214 377.256367 377.256367 0 0 1 37.240173 17.055105c7.473585 3.704854 21.845865 11.17844 31.938399 15.458185s26.061733 12.264345 35.643253 16.480213a62.343754 62.343754 0 0 1 20.248945 12.77536c1.59692 3.19384 9.070505 5.301774 15.969199 5.301774a55.44506 55.44506 0 0 1 27.147639 12.264345l14.37228 12.77536-10.667426 10.667425c-38.837093 38.837093-104.821825 80.357011-110.69849 70.264477z m-497.025362-102.713891c-14.883294-59.597052 2.107934-71.286506 19.163039-13.861265l10.667426 37.240173h-11.689454c-9.645396 0.063877-13.350251-4.215869-18.141011-23.378908zM31.401317 340.965403a440.302766 440.302766 0 0 1 36.154268-72.883426c5.876665-6.898694 13.286374-8.495614 32.449413-6.38768a250.397047 250.397047 0 0 0 103.224905-15.458185c19.163039-6.898694 19.674054-7.9846 11.689454-15.969199a83.039837 83.039837 0 0 0-29.255573-14.883294c-27.147639-7.9846-28.233545-20.759959-2.682826-20.759959a108.590556 108.590556 0 0 1 67.581652 30.341478 122.451821 122.451821 0 0 1 25.550719 67.070638v18.652025l-30.341479 2.682825a522.895465 522.895465 0 0 0-68.092666 11.689454c-20.248945 4.79076-46.821693 10.667425-58.511147 13.286374a280.163634 280.163634 0 0 1-87.830597 2.682826zM100.579889 215.95851c12.77536-15.969199 20.759959-21.270974 32.449413-21.270974 10.092534 0 15.458185 2.682826 15.458185 7.9846a7.729093 7.729093 0 0 1-7.473585 7.9846 133.630261 133.630261 0 0 0-32.449413 13.286374l-25.039705 13.861265z" fill="#19D17F" p-id="5958"></path><path d="M381.637799 1010.394242c-24.14543-6.898694-28.425175-10.092534-28.425175-21.270974v-12.775359l15.011047 10.667425a272.817803 272.817803 0 0 0 41.839303 21.270974c32.70492 13.286374 13.925142 14.372279-28.425175 2.107934z m-92.749111-76.077266c0-11.689454-2.682826-15.969199-9.645396-15.969199-11.817208 0-22.484633-20.759959-22.484633-42.541947 0-23.953799 8.559491-19.163039 24.656444 12.264345a401.465673 401.465673 0 0 0 27.850284 45.224772l12.775359 17.055105H305.560533c-15.011047-0.127754-16.671844-1.724674-16.671845-16.096953z m547.296403-53.209372a47.0772 47.0772 0 0 0-25.167459-10.667425 22.229126 22.229126 0 0 1-15.522062-5.301775 176.810976 176.810976 0 0 0-55.189553-26.636624 49.057381 49.057381 0 0 1-18.204887-10.667426c-7.473585-5.301774-15.011047-8.495614-17.182859-6.898694s-3.19384 0.511014-3.193839-2.682825a6.770941 6.770941 0 0 0-7.473586-6.38768 168.826376 168.826376 0 0 1-59.469298-26.636625 14.947171 14.947171 0 0 0-12.328222-5.301774 49.568395 49.568395 0 0 1-22.484633-10.667425 47.26883 47.26883 0 0 0-22.484633-10.667425c-4.854637 0-9.645396-1.59692-10.731302-3.704854a332.159348 332.159348 0 0 0-91.663204-44.138868 29.383327 29.383327 0 0 1-18.779779-6.387679 41.072781 41.072781 0 0 0-18.204887-7.9846 47.907598 47.907598 0 0 1-20.376699-9.58152 30.469232 30.469232 0 0 0-16.096953-7.984599 119.896749 119.896749 0 0 1-33.215934-15.9692 107.824034 107.824034 0 0 0-41.264412-15.969199c-9.645396 0-16.607967-3.19384-18.779778-9.070505-3.19384-7.473585-5.876665-5.876665-15.522062 7.984599-6.38768 9.070505-13.414128 17.055105-15.522062 17.055105-9.134382 0-3.768731-37.751187 6.38768-47.907598a37.367927 37.367927 0 0 0 10.731302-15.458185 206.066549 206.066549 0 0 1 61.64111-51.612453 149.727214 149.727214 0 0 1 38.326078-11.178439c19.801807-2.682826 24.14543-1.085906 33.215935 9.58152a84.828387 84.828387 0 0 1 14.500033 31.427384 221.716365 221.716365 0 0 0 16.096953 43.627853 163.780109 163.780109 0 0 0 213.348504 81.953931c47.141077-15.458185 65.409841-17.055105 77.738063-6.898694a318.74522 318.74522 0 0 0 48.801873 24.464813 420.820343 420.820343 0 0 1 48.226982 23.9538 164.227247 164.227247 0 0 0 34.812855 16.480213 177.769128 177.769128 0 0 1 42.861331 21.270974l15.522062 12.775359-13.925142 20.248945a391.437016 391.437016 0 0 1-72.883426 76.077266 85.275525 85.275525 0 0 1-16.54409-10.603548z m-598.20621-71.861398a339.505179 339.505179 0 0 1 9.134382-120.791024c4.854637-15.458185 8.559491-20.248945 18.204887-20.248945h11.817208l-10.731302 33.535319a225.101835 225.101835 0 0 0-8.559491 90.449545c2.171811 51.612452 1.59692 56.914227-6.962571 56.914227-7.473585 0-10.156411-6.898694-12.77536-39.922998zM5.339584 443.423786a485.463662 485.463662 0 0 1 24.145429-97.92313c6.962571-15.969199 8.559491-16.480214 47.141077-19.674054a309.227577 309.227577 0 0 0 52.506728-8.495614 600.441898 600.441898 0 0 1 127.05095-24.464814c8.048477 4.279745 7.473585 0.511014-2.171811-22.356879a84.509003 84.509003 0 0 0-46.630062-50.015532 131.522326 131.522326 0 0 0-86.808568-4.79076c-18.204887 6.38768-19.163039-6.38768-2.171811-18.077134 13.414128-9.58152 73.969332-11.689454 73.969331-3.19384 0 3.19384 5.876665 5.301774 12.77536 5.301774 22.484633 0 30.022095 5.876665 30.022095 21.845865 0 13.286374 2.171811 15.458185 15.522061 15.458185s16.607967 3.19384 24.14543 21.270974a146.916635 146.916635 0 0 1-27.850284 150.046597 244.967519 244.967519 0 0 0-27.339269 29.766588 32.70492 32.70492 0 0 1-30.533109 17.055105c-9.645396 0-18.204887-2.682826-19.16304-5.876665-1.59692-4.279745-21.973618-1.59692-65.920855 7.984599a664.318695 664.318695 0 0 1-83.039837 13.861266h-19.801807z" fill="#1ED094" p-id="5959"></path><path d="M907.663227 794.299036a198.784594 198.784594 0 0 0-42.861331-21.845865 164.099493 164.099493 0 0 1-34.812855-16.480214 371.954593 371.954593 0 0 0-80.357011-35.643253c0 2.107934-5.365651-1.59692-11.817208-7.473585l-12.328222-11.17844-37.49568 12.77536c-47.141077 15.458185-56.275459 15.969199-56.275459 2.107934a9.58152 9.58152 0 0 1 9.645397-10.667425 417.88201 417.88201 0 0 0 159.117103-108.015665 61.193972 61.193972 0 0 1 48.226982-25.039705 43.947237 43.947237 0 0 1 25.167458 10.667426 40.49789 40.49789 0 0 0 21.462604 10.667425 94.793168 94.793168 0 0 1 47.141077 21.845865c0 2.107934 6.38768 5.301774 14.436156 7.473585a94.1544 94.1544 0 0 1 29.447204 14.372279c13.414128 9.070505 15.011047 13.286374 11.817207 27.147639a98.370268 98.370268 0 0 1-8.048476 25.039705c-2.171811 4.279745-9.134382 20.248945-15.522062 34.557348a361.606551 361.606551 0 0 1-48.226982 82.464945 102.202876 102.202876 0 0 1-18.779779-12.775359z m-884.054879-121.365916a1238.443352 1238.443352 0 0 1-18.779779-86.744691c-9.134382-51.612452-3.768731-160.203008 6.962571-143.147903 3.768731 6.38768 42.861331 4.279745 45.544157-2.682826 0.511014-2.107934 7.473585-3.19384 15.522062-1.59692 9.645396 1.59692 12.77536 0.511014 10.156411-3.19384s-1.085906-5.301774 4.279745-3.19384a145.830729 145.830729 0 0 0 45.544157-5.301774c49.823902-11.17844 61.64111-11.17844 57.489118 1.085906-2.171811 4.79076 2.682826 2.107934 10.156411-6.898694l34.812854-39.348108a117.341677 117.341677 0 0 0 21.462604-27.658653 5.301774 5.301774 0 0 1 5.365651-4.79076c3.19384 0 5.365651 8.495614 5.365651 18.652025 0 16.480214-1.59692 18.652025-13.414127 18.652025-10.731302 0-13.414128 2.682826-13.414128 13.286374a36.729159 36.729159 0 0 1-9.645396 22.867893 414.68817 414.68817 0 0 0-84.125743 203.830862l-3.19384 30.341478-48.226982 3.704855c-33.726949 2.682826-49.312888 5.876665-51.420822 11.178439a11.17844 11.17844 0 0 1-20.440575 1.022029z m410.919439-55.892198a149.343953 149.343953 0 0 1-8.559491-27.147639c-3.768731-22.356879-19.163039-42.541947-30.022095-39.922998a181.729489 181.729489 0 0 0-51.995713 27.147639l-17.693873 12.775359v-16.480213c0-12.77536 2.171811-16.480214 10.731302-16.480214 5.876665 0 10.731302-3.19384 10.731302-6.898694 0-10.667425 54.678539-35.643253 77.163172-35.643253h19.354669v28.169667c0 14.883294 1.59692 40.434013 3.19384 55.892198 3.768731 28.233545-3.19384 37.751187-12.775359 18.652025z" fill="#21CCB0" p-id="5960"></path><path d="M129.579955 780.757155a23.889922 23.889922 0 0 0-41.775425-6.898695c-8.559491 8.495614-9.645396 7.9846-19.16304-4.279745a408.811505 408.811505 0 0 1-28.936189-56.914227c-23.570538-56.403212-21.462604-61.704987 27.850284-67.070637 19.801807-2.682826 41.775426-4.279745 48.737996-4.79076s11.817208-3.704854 11.817208-10.667425c0-5.301774 2.682826-9.070505 6.38768-7.9846a116.575156 116.575156 0 0 1 13.414127 50.015533 460.743341 460.743341 0 0 0 14.436156 70.775491 135.482688 135.482688 0 0 1 8.559491 38.326079c0 13.861265-1.59692 15.458185-17.693873 15.458185-14.436156 0-18.779779-2.682826-23.570538-15.969199z m843.876374-125.07077a137.079608 137.079608 0 0 0-33.215935-16.480214c-7.473585-1.59692-13.925142-4.79076-13.925142-6.898694a98.561899 98.561899 0 0 0-44.713758-21.845865c-11.817208 0-35.387746-13.861265-31.044124-18.652025 2.171811-2.107934-3.768731 0-13.414127 4.79076a46.630062 46.630062 0 0 0-19.16304 14.883294c-1.59692 3.704854-3.19384-2.107934-3.19384-12.77536a78.887845 78.887845 0 0 1 15.522062-44.713758 434.362224 434.362224 0 0 0 46.055171-131.458449c3.19384-24.464813 3.768731-25.039705 21.462604-25.039705 16.607967 0 18.204887 1.59692 18.204888 14.883294s3.768731 16.480214 23.059524 24.464813a260.681211 260.681211 0 0 1 30.022094 15.9692 96.709472 96.709472 0 0 0 29.447204 11.178439l21.973618 5.301774 1.59692 37.240173a435.895267 435.895267 0 0 1-25.550719 158.031198c-2.107934 2.299565-12.455976-1.40529-23.187277-8.878875z" fill="#18C4C8" p-id="5961"></path><path d="M351.743457 1001.195983a537.97039 537.97039 0 0 1-189.203074-111.592765 591.690776 591.690776 0 0 1-93.260125-119.130228c-4.854637-12.392099-3.768731-14.56391 9.134382-18.332641 8.048477-2.171811 17.118982-4.343622 19.801808-4.854636 21.973618-2.682826 40.178506-10.220288 40.178505-16.735721 0-15.649815 13.925142-7.026448 20.887713 12.775359a455.697074 455.697074 0 0 0 216.03133 248.161359c8.559491 4.854637 15.011047 12.392099 15.011047 16.16083s-0.511014 6.38768-1.085905 5.940542-17.693873-5.940542-37.495681-12.392099z m630.783377-522.831588a120.663271 120.663271 0 0 1-29.447204-11.306194 129.86153 129.86153 0 0 0-49.312888-21.015466c-2.682826 1.59692-4.854637-6.38768-4.854636-17.75775-0.511014-19.163039-1.085906-19.163039-7.473586 9.134382-8.048477 33.982456-8.559491 30.72474-11.242316-54.423031a370.102165 370.102165 0 0 0-73.39444-218.841909A434.809361 434.809361 0 0 0 681.922624 56.458146c-18.204887-9.709273-28.936189-19.163039-28.936189-24.273183s3.19384-9.709273 7.473585-9.709273a570.547556 570.547556 0 0 1 135.610442 63.876798c5.365651 4.854637 19.163039 15.649815 31.108 24.784197a521.362422 521.362422 0 0 1 146.916635 187.031264 599.80313 599.80313 0 0 1 43.436222 145.511345c9.645396 45.799664 8.559491 46.885569-34.812855 34.49347z" fill="#0DBCE1" p-id="5962"></path><path d="M391.666456 1014.162973a81.570671 81.570671 0 0 1-21.270974-9.581519 78.760091 78.760091 0 0 0-20.759959-8.495615c-11.689454-2.682826-14.883294-6.38768-14.883294-17.055105v-13.861265l18.652025 13.861265a265.791355 265.791355 0 0 0 46.310678 27.147639c27.147639 12.77536 22.867894 17.055105-7.984599 7.9846z m-120.791024-103.735919c0-23.442785 4.79076-23.442785 20.248944 0l11.689454 18.652025h-15.969199c-14.819417-0.063877-15.969199-1.660797-15.969199-18.715902z m-23.442785-35.643253a140.081817 140.081817 0 0 1-3.19384-26.636625c0-24.464813 13.286374-17.055105 22.356879 11.689454l8.495614 26.636625h-12.264345a14.500033 14.500033 0 0 1-15.330431-11.753331z m-74.480346-44.138867c-11.689454-18.077134-10.667425-23.953799 4.79076-23.9538 11.689454 0 13.286374 2.107934 13.286374 18.652025 0.063877 21.718111-5.812789 23.826046-18.013257 5.237898z m60.682958-31.938399c0-21.270974 12.77536-26.061733 18.077133-6.38768s3.704854 25.039705-7.473585 25.039705c-8.495614 0-10.667425-3.704854-10.667425-18.652025z m0-40.945028a283.932365 283.932365 0 0 1 42.541947-137.271238c2.107934 0 5.301774-4.79076 6.898694-10.667425 2.107934-7.9846 7.473585-10.667425 19.674054-10.667425h17.055105l-12.77536 17.566119a292.172472 292.172472 0 0 0-54.806292 133.05537c-3.704854 21.718111-18.524271 28.105791-18.524272 7.856846z m-96.837226-21.270973a482.780836 482.780836 0 0 1-6.387679-84.061866A297.41037 297.41037 0 0 1 142.674699 551.311698a394.183718 394.183718 0 0 1 78.760091-147.427649 270.837622 270.837622 0 0 0 39.922999-60.682958c7.473585-26.061733 20.248945-27.658653 20.248945-2.107934 0 19.674054-9.58152 45.224773-17.055105 45.224772-2.107934 0-4.279745 3.19384-4.279746 7.473586a40.370136 40.370136 0 0 1-15.969199 20.759959 74.097085 74.097085 0 0 0-15.9692 17.055105 92.365849 92.365849 0 0 1-12.775359 20.248945 438.450339 438.450339 0 0 0-59.597052 136.760223 412.069221 412.069221 0 0 0 1.085905 145.255838c3.19384 20.759959 2.107934 25.039705-4.79076 25.039705-5.301774 0-11.17844-7.9846-15.458185-22.356879z m421.586865-6.38768a160.96953 160.96953 0 0 1-133.05537-158.542212 161.544421 161.544421 0 0 0-2.107934-36.154267 256.529219 256.529219 0 0 0-65.984732 34.046333l-27.658653 19.163039v-15.969199c0-12.77536 4.279745-18.652025 22.356879-29.766588a199.423362 199.423362 0 0 1 109.10157-34.046333 604.210629 604.210629 0 0 0 137.271238-21.845865c7.9846-7.9846 45.224773-5.876665 48.418613 3.19384a14.244526 14.244526 0 0 0 11.178439 7.9846 142.509136 142.509136 0 0 1 49.504519 21.270974 113.189685 113.189685 0 0 0 26.636624 10.092534 213.540134 213.540134 0 0 1 34.557348 12.775359 136.249209 136.249209 0 0 0 62.279877 25.039705h15.458185l-21.270973 31.427384a334.969927 334.969927 0 0 1-197.443182 133.05537 342.251882 342.251882 0 0 1-37.240173 5.301774 1049.176401 1049.176401 0 0 1-32.130029-6.962571zM260.910651 284.689944a112.806425 112.806425 0 0 0-117.597184-76.652157c-19.163039 3.19384-21.270974 2.682826-21.270974-7.473585s3.19384-11.17844 34.046333-11.17844a139.82631 139.82631 0 0 1 72.372412 15.458185 92.621357 92.621357 0 0 0 12.775359 9.070505 45.863541 45.863541 0 0 1 15.9692 15.9692 92.74911 92.74911 0 0 0 9.070505 12.775359 67.134514 67.134514 0 0 1 15.458185 44.713759c-0.19163 26.508871-12.96699 24.911951-20.951589-2.810579z m-167.612717-59.597052c5.301774-7.473585 11.689454-14.372279 14.37228-14.372279 7.9846 0 3.19384 8.495614-10.667426 18.077133l-14.372279 10.667426z" fill="#79E1CC" p-id="5963"></path><path d="M394.604789 1014.162973a474.987867 474.987867 0 0 1-119.194105-64.898826l-22.037495-19.674054 20.376698-0.511014c13.989019 0 19.865684 2.107934 19.865684 7.984599 0 4.279745 4.854637 7.9846 10.731303 7.9846s10.731302 2.682826 10.731302 5.301774 3.19384 5.301774 7.537462 5.301775a22.867894 22.867894 0 0 1 15.011047 9.581519 196.229522 196.229522 0 0 0 56.403212 38.326079 36.537528 36.537528 0 0 1 14.500033 7.984599c11.817208 8.495614 8.048477 9.517643-13.925141 2.618949z m-191.119379-135.674318a265.024833 265.024833 0 0 1-23.634415-38.326079 71.989151 71.989151 0 0 0-10.220288-17.566119 344.934707 344.934707 0 0 1-34.365717-109.10157c-1.085906-8.495614-2.171811-18.077134-2.682825-21.270974-2.682826-12.77536 0.511014-23.953799 7.537462-23.953799 4.854637 0 8.559491 9.58152 10.731302 27.147639a343.337787 343.337787 0 0 0 17.182858 62.279878c7.537462 19.674054 15.011047 40.434013 16.671845 46.310678a57.489118 57.489118 0 0 0 10.731302 17.566119 25.550719 25.550719 0 0 1 6.96257 14.883294c0 4.279745 2.682826 7.473585 5.365651 7.473585s5.365651 3.19384 5.365651 7.473586a13.478004 13.478004 0 0 0 8.048477 10.667425c8.048477 2.682826 11.817208 40.434013 4.279745 40.434013a101.627985 101.627985 0 0 1-22.037495-23.953799z m611.492584-296.388341a136.185333 136.185333 0 0 1-44.011114-17.566119 85.658786 85.658786 0 0 0-27.403146-13.286374 175.788947 175.788947 0 0 1-47.26883-15.9692 125.134647 125.134647 0 0 0-42.414194-18.652025 33.024304 33.024304 0 0 1-19.163039-11.689454c-5.365651-6.898694-8.559491-7.473585-13.989019-3.704854a315.423627 315.423627 0 0 1-75.694005 18.077134c-2.171811 0-4.279745-4.279745-4.279745-10.092534 0-6.898694 4.854637-11.17844 17.693872-13.286374a257.423494 257.423494 0 0 0 180.899091-170.806557c0-5.876665 5.365651-7.9846 18.779779-7.9846 16.671844 0 18.779779 1.59692 18.779778 13.286374 0 10.092534 3.768731 13.861265 15.011048 16.480214a114.978236 114.978236 0 0 1 52.05959 21.270974 71.286506 71.286506 0 0 0 31.108 10.092534c28.425175 4.279745 27.914161 3.19384 19.16304 55.317307a468.855695 468.855695 0 0 1-44.011114 134.141275c-11.306193 18.077134-12.328222 18.652025-35.451623 14.372279z" fill="#74DCDF" p-id="5964"></path><path d="M397.032107 1015.63214c-6.962571-1.085906-12.328222-4.854637-12.328222-8.112354s-1.59692-4.279745-3.768731-2.682825-6.38768 1.085906-10.220288-1.59692a41.519918 41.519918 0 0 0-17.693873-8.112354 76.652157 76.652157 0 0 1-25.550719-12.775359 47.26883 47.26883 0 0 0-20.951589-11.306193c-4.279745 0-7.537462-2.171811-7.537463-5.365651a5.876665 5.876665 0 0 0-5.876665-5.365651 287.445589 287.445589 0 0 1-80.037627-74.863607c0-3.257717 5.365651-5.940542 12.328222-5.940542a56.658719 56.658719 0 0 1 41.328288 42.030933c0 9.709273 3.19384 11.881084 16.096953 11.881084 9.645396 0 17.693873 3.257717 19.163039 8.112353a13.605758 13.605758 0 0 0 10.731302 8.112354c4.279745 0 7.537462 4.854637 7.537462 10.795178 0 7.537462 3.768731 10.795179 11.306193 10.795179a96.645595 96.645595 0 0 1 34.365717 16.16083 111.337258 111.337258 0 0 0 28.489052 16.16083 23.059524 23.059524 0 0 1 11.817208 8.112353c3.768731 4.279745 5.876665 7.537462 4.854636 7.537462a92.174219 92.174219 0 0 0-14.052895-3.5771z m-200.892529-150.876996a137.143485 137.143485 0 0 1-15.011047-26.956009c-3.768731-9.709273-8.623368-17.75775-10.731302-17.75775s-3.768731-4.854637-4.279746-10.795179c-0.511014-7.537462 2.171811-10.795179 9.645397-10.795178s10.220288 3.768731 10.220287 19.163039 2.171811 19.163039 10.731302 19.163039 10.731302 3.768731 10.731303 19.163039c0 20.696082-0.511014 21.270974-11.306194 8.878875z m693.382639-467.131022c0-4.854637-9.645396-8.623368-29.511081-11.306193-16.096953-1.59692-29.511081-5.940542-29.51108-8.623367 0-5.940542-28.489052-18.332641-55.317307-23.187278-11.306193-2.171811-18.779779-5.940542-17.182859-9.134382s2.171811-4.854637 0.511015-4.854637-6.38768 6.38768-11.306194 15.074925c-8.048477 13.989019-8.623368 12.77536-4.279745-23.187278a267.771536 267.771536 0 0 0-44.011114-218.203141A281.05791 281.05791 0 0 0 579.655871 27.45808c-17.182859-4.854637-23.123401-9.134382-23.1234-17.246735 0-9.134382 2.682826-9.709273 28.489051-6.38768a374.318034 374.318034 0 0 1 301.306855 275.308998 310.37736 310.37736 0 0 1 9.134382 126.092798 6.834817 6.834817 0 0 1-5.876666-7.537462z" fill="#6CD5F1" p-id="5965"></path><path d="M381.510045 1007.136525c-8.495614-3.257717-14.883294-7.537462-14.883294-10.220287 0-5.940542 1.085906-5.365651 20.248945 4.279745 26.12561 12.903113 22.420756 17.055105-5.365651 5.940542z m-49.504518-22.612386a432.829181 432.829181 0 0 1-82.464946-59.277668c0-1.59692 8.495614-2.682826 18.652025-2.682826 12.77536 0 18.652025 2.682826 18.652025 8.112354a9.77315 9.77315 0 0 0 10.667425 8.112353c5.876665 0 10.667425 2.682826 10.667425 5.365651s3.704854 5.365651 7.9846 5.365651a8.240107 8.240107 0 0 1 7.9846 8.112353 7.729093 7.729093 0 0 0 6.898694 8.112354c9.58152 0.511014 31.427384 20.504452 29.255573 26.956008-1.085906 3.768731-12.77536 0-28.233544-8.112353z m-127.753595-111.017874a206.513687 206.513687 0 0 1-23.953799-37.687311c0-2.682826 5.876665-4.854637 13.286373-4.854636 8.495614 0 13.286374 3.257717 13.286374 8.112353s2.682826 8.112353 5.301775 8.112353 5.301774 4.854637 5.301774 10.795179 3.704854 10.795179 7.984599 10.795179c5.301774 0 7.9846 5.940542 7.9846 19.163039 0 10.220288-1.085906 19.163039-2.682825 19.163039a210.090787 210.090787 0 0 1-26.636625-32.89655zM411.276633 499.571491c2.682826-23.698292 1.59692-29.638834-4.279746-29.638834a89.427517 89.427517 0 0 1-29.830464-19.163039 112.487041 112.487041 0 0 0-27.147639-19.163039 29.894341 29.894341 0 0 1-13.286374-6.38768l-14.37228-12.392099a96.198457 96.198457 0 0 0-69.178571-20.504452l-25.039705 3.257717 18.652025-28.552929a84.38125 84.38125 0 0 0 18.652025-61.960493 83.039837 83.039837 0 0 0-17.055105-59.788683 103.416535 103.416535 0 0 0-128.775624-40.945027c-27.658653 12.77536-27.147639 10.220288 6.38768-29.638834a559.369117 559.369117 0 0 1 127.753595-106.163238A453.525263 453.525263 0 0 1 488.950819 2.801636a228.551182 228.551182 0 0 1 102.202876 7.537462 262.916899 262.916899 0 0 1 167.229456 200.892529c3.19384 19.163039 2.107934 21.526481-7.9846 21.526481-7.9846 0-11.17844-3.257717-11.689454-11.881085a115.808634 115.808634 0 0 0-6.898694-31.235754c-6.38768-18.332641-6.898694-17.75775-10.092534 26.381118a207.727346 207.727346 0 0 1-18.652025 78.121323 194.696479 194.696479 0 0 1-134.652289 114.978236 151.324134 151.324134 0 0 0-79.271106 50.143286l-34.557347 35.004485 22.867893 1.59692q22.356879 1.59692 22.356879 9.709273c0 4.279745-0.511014 7.537462-1.085905 7.537463-2.682826 0-60.108067 10.220288-75.566252 13.478004l-15.458185 3.257717 3.704854-30.149849z" fill="#C8EEE9" p-id="5966"></path><path d="M525.552224 500.912904c0-7.9846 5.301774-10.667425 23.953799-13.286374a282.590953 282.590953 0 0 0 124.495878-67.581652 291.597581 291.597581 0 0 0 67.581652-122.898958c2.682826-14.883294 5.876665-20.248945 13.286374-20.248945 12.264345 0 12.77536 13.861265 2.682826 48.418613a258.573277 258.573277 0 0 1-178.280143 177.194236c-39.411984 11.689454-53.720387 11.17844-53.720386-1.59692z" fill="#C8EEE9" p-id="5967"></path><path d="M334.816106 984.843523a369.144013 369.144013 0 0 1-165.504783-170.295542 383.963431 383.963431 0 0 1-28.744559-244.775889A393.736581 393.736581 0 0 1 225.714536 404.842201a168.826376 168.826376 0 0 0 23.442784-26.061734c-3.19384 1.59692-2.682826-1.59692 1.085906-7.9846 5.301774-7.9846 8.495614-9.070505 11.689454-4.279745s3.704854 2.107934 2.107934-5.301774a17.885503 17.885503 0 0 1 2.682826-15.9692c3.19384-1.59692 4.279745-0.511014 2.107934 2.682826s2.682826 12.264345 10.092534 20.248945 13.286374 12.77536 13.286374 10.667425 3.704854 0 8.495614 4.79076a53.273249 53.273249 0 0 0 23.953799 11.689454c8.495614 1.59692 13.861265 4.79076 12.77536 6.898694s2.107934 5.876665 7.984599 7.9846 10.667425 5.876665 10.667426 9.070505 3.19384 4.279745 6.387679 3.19384 12.77536 3.19384 19.674054 9.581519 15.458185 10.667425 18.077134 9.070506 3.704854-0.511014 1.59692 3.19384 1.59692 8.495614 12.264345 12.775359c9.070505 3.19384 16.480214 7.9846 16.480214 10.092534s3.704854 2.682826 7.984599 1.085906 6.38768-5.301774 4.79076-7.9846 1.085906-4.79076 5.876666-4.79076 6.898694 2.682826 4.790759 6.898694c-2.107934 3.19384 1.085906 1.59692 7.473586-3.704854 11.689454-10.092534 11.689454-10.092534 11.689454 1.59692 0 18.077134-31.427384 69.689586-42.541948 69.689586a247.522591 247.522591 0 0 0-102.71389 62.790892 251.546829 251.546829 0 0 0-2.682826 359.179233 470.197107 470.197107 0 0 0 46.821693 42.541947c24.975828 15.905323-1.59692 9.006628-37.240173-9.645396zM267.234454 314.137148c0-11.689454 1.085906-15.969199 2.107934-9.070505a71.222629 71.222629 0 0 1 0 21.270973c-1.59692 5.046267-2.682826-0.255507-2.107934-11.944961z" fill="#D1F3DF" p-id="5968"></path><path d="M429.48152 515.15743a221.652488 221.652488 0 0 1 13.286374-32.449413A186.200865 186.200865 0 0 1 557.235115 387.978726a195.974015 195.974015 0 0 0 135.163304-115.48925 136.376963 136.376963 0 0 0 15.458185-77.163172 189.650212 189.650212 0 0 0-83.039837-162.821957c-11.689454-8.495614-19.163039-15.458185-16.480214-15.458185a243.562229 243.562229 0 0 1 85.147772 59.597052 250.397047 250.397047 0 0 1-1.59692 350.683619 259.531429 259.531429 0 0 1-187.861662 79.845997 454.930553 454.930553 0 0 0-62.279878 7.9846c-6.898694 1.59692-12.264345 1.59692-12.264345 0z" fill="#FFFFFF" p-id="5969"></path></svg>