<?xml version="1.0" standalone="no"?><!DOCTYPE svg PUBLIC "-//W3C//DTD SVG 1.1//EN" "http://www.w3.org/Graphics/SVG/1.1/DTD/svg11.dtd"><svg t="1772105761180" class="icon" viewBox="0 0 1024 1024" version="1.1" xmlns="http://www.w3.org/2000/svg" p-id="11244" xmlns:xlink="http://www.w3.org/1999/xlink" width="64" height="64"><path d="M867.84 123.0336c-120.576-39.936-224.3072 44.8-248.5248 122.368 0 0-87.04 279.5008-124.1088 396.0832-17.7152 55.6544-61.5424 146.688-144.1792 146.688-67.2768 0-101.888-63.1296-116.4288-100.7616L134.3488 419.9936c-11.6736-28.16 0.512-84.3264 47.104-101.1712 49.7664-17.8176 81.7664 23.808 90.0608 45.9264l124.928 320c29.7472-38.4 48.6912-100.7616 61.0304-144.9984L375.4496 324.352c-38.912-100.5056-141.824-146.2272-237.1584-111.104-77.1584 28.4672-151.4496 125.9008-111.104 248.32l103.5776 266.24c15.7184 40.2944 77.7216 172.1344 218.112 172.1344 168.3456 0 231.5264-143.616 266.5984-257.0752 17.5104-56.832 113.6128-363.7248 113.6128-363.7248 13.9776-45.8752 70.7584-59.0336 106.1888-47.4624 25.0368 8.0896 70.2464 42.6496 55.6544 96.1024-2.7136 9.728-79.36 256.7168-107.6736 331.8272-14.7968 39.2192-52.224 124.3136-137.4208 112.4352-26.0096 57.4976-47.616 90.9312-80.2304 120.9856 106.3424 50.3296 261.3248-0.4096 326.5536-197.4784 36.6592-112.4864 73.1136-225.024 109.312-337.6128 24.6784-81.152-19.3536-197.12-133.632-234.9056z" p-id="11245" fill="#1296db"></path></svg>