<?xml version="1.0" standalone="no"?><!DOCTYPE svg PUBLIC "-//W3C//DTD SVG 1.1//EN" "http://www.w3.org/Graphics/SVG/1.1/DTD/svg11.dtd"><svg t="1772279406422" class="icon" viewBox="0 0 1024 1024" version="1.1" xmlns="http://www.w3.org/2000/svg" p-id="17697" xmlns:xlink="http://www.w3.org/1999/xlink" width="64" height="64"><path d="M786 758.4c-6.4-3.2-56-26-110-50.4-54-24.8-109.6-50.4-124-56.8-14.4-6.8-33.6-15.6-43.2-19.2l-16.8-6.4 16-12c8.8-6.4 26-18.8 38-27.6 11.6-8.8 45.2-33.2 74.4-54 28.8-20.8 57.6-42 63.2-46.8 17.2-14.4 10.8-20.4-70.4-63.6-19.2-10.4-36.4-20-38-21.2-1.6-1.6 9.2-9.2 24-16.8 22.8-12.4 80.4-44 148.8-82.4 34-19.2 40.4-22 55.6-24 10-1.6 16.4 0 19.6 4 4 4.4 4.8 58.4 4 236.8l-1.2 230.8-9.6 7.6c-11.2 9.2-14.4 9.2-30.4 2z" fill="#7128EA" p-id="17698"></path><path d="M188 760c-8-8-8.4-11.6-7.2-239.6 1.2-251.6 0.8-244.4 23.6-244.4 6.4 0 27.2 6.8 46.4 15.2 19.6 8.8 46 20 59.2 25.6 24.4 10.8 135.2 58.4 164 71.2 8.8 4 30.4 13.2 48 21.2 54 23.6 71.2 30.8 98 41.6 14 6 28.4 13.2 31.6 16 4.8 5.2 4 7.2-6 15.6-6.4 5.2-16.8 12.8-23.6 16.4-6.4 3.6-24.4 14.8-40 25.6-15.2 10.4-74 48.8-130 85.6s-132.8 87.6-170 112.4c-37.6 25.2-72.4 45.6-77.2 45.6s-12.4-3.6-16.8-8z" fill="#FFB977" p-id="17699"></path></svg>