<?xml version="1.0" standalone="no"?><!DOCTYPE svg PUBLIC "-//W3C//DTD SVG 1.1//EN" "http://www.w3.org/Graphics/SVG/1.1/DTD/svg11.dtd"><svg t="1771906278976" class="icon" viewBox="0 0 2062 1024" version="1.1" xmlns="http://www.w3.org/2000/svg" p-id="22125" xmlns:xlink="http://www.w3.org/1999/xlink" width="128.875" height="64"><path d="M995.555556 817.777778c-13.511111-13.511111-14.222222-23.466667-14.222223-322.133334 0-285.155556 0.711111-309.333333 12.8-319.288888 6.4-5.688889 17.777778-12.8 24.888889-14.933334 15.644444-5.688889 51.2 11.377778 57.6 27.022222 2.133333 6.4 4.266667 147.2 4.266667 312.177778v300.8l-16.355556 14.933334c-20.622222 19.2-50.488889 19.911111-68.977777 1.422222z" fill="#008AE6" p-id="22126"></path><path d="M719.644444 773.688889c-3.555556-4.977778-63.288889-110.933333-132.266666-234.666667-110.222222-196.977778-125.155556-227.555556-118.044445-240.355555 5.688889-10.666667 13.511111-14.222222 26.311111-12.8 14.933333 1.422222 24.177778 12.8 48.355556 55.466666 16.355556 29.155556 73.244444 132.266667 126.577778 228.266667s97.422222 179.2 97.422222 184.888889c0 24.177778-33.422222 36.977778-48.355556 19.2zM432.355556 578.133333C342.755556 488.533333 270.222222 411.733333 270.222222 407.466667c0-4.977778 6.4-12.088889 14.222222-16.355556 12.088889-6.4 33.422222 12.088889 177.777778 154.311111 123.733333 120.888889 163.555556 164.977778 162.133334 175.644445-5.688889 38.4-29.155556 20.622222-192-142.933334zM309.333333 589.511111C180.622222 515.555556 143.644444 490.666667 160.711111 490.666667c7.822222 0 292.266667 160 305.066667 171.377777 3.555556 3.555556 0.711111 6.4-7.111111 6.4-7.822222-0.711111-74.666667-35.555556-149.333334-78.933333z" fill="#0061E4" p-id="22127"></path><path d="M1555.911111 702.577778c-17.777778-14.222222-268.8-450.133333-268.8-466.488889 0-8.533333 7.111111-18.488889 14.933333-23.466667 12.8-6.4 17.777778-5.688889 28.444445 4.977778 11.377778 12.088889 247.466667 412.444444 264.533333 448.711111 5.688889 12.8 4.266667 19.2-5.688889 30.577778-14.933333 16.355556-18.488889 17.066667-33.422222 5.688889zM1594.311111 441.6c-165.688889-162.133333-177.066667-177.066667-145.777778-189.155556 7.822222-2.844444 57.6 41.244444 168.533334 150.755556 86.755556 85.333333 161.422222 160.711111 166.4 167.822222 9.955556 14.222222 0.711111 33.422222-15.644445 33.422222-4.266667-0.711111-82.488889-73.244444-173.511111-162.844444zM1747.2 420.266667c-152.888889-87.466667-167.111111-96-156.444444-102.4 7.111111-4.266667 310.044444 169.244444 313.6 179.911111 1.422222 3.555556 0 7.111111-3.555556 7.111111-2.844444 0-72.533333-38.4-153.6-84.622222z" fill="#00BFF4" p-id="22128"></path><path d="M861.155556 797.866667c-11.377778-22.044444-150.044444-539.733333-150.044445-561.777778 0-14.933333 4.977778-22.755556 18.488889-28.444445 27.022222-12.8 42.666667 0 54.755556 42.666667 46.222222 163.555556 140.088889 519.822222 140.088888 531.2 0 27.022222-50.488889 39.822222-63.288888 16.355556z" fill="#0075E5" p-id="22129"></path><path d="M1288.533333 777.244444c-9.955556-18.488889-150.755556-544.711111-150.755555-562.488888 0-31.288889 49.066667-44.088889 63.288889-16.355556 9.244444 16.355556 150.044444 543.288889 150.044444 559.644444 0 7.822222-3.555556 17.777778-8.533333 22.755556-12.8 12.8-46.933333 10.666667-54.044445-3.555556z" fill="#00A4ED" p-id="22130"></path></svg>