<?xml version="1.0" standalone="no"?><!DOCTYPE svg PUBLIC "-//W3C//DTD SVG 1.1//EN" "http://www.w3.org/Graphics/SVG/1.1/DTD/svg11.dtd"><svg t="1771932032577" class="icon" viewBox="0 0 1024 1024" version="1.1" xmlns="http://www.w3.org/2000/svg" p-id="87343" xmlns:xlink="http://www.w3.org/1999/xlink" width="64" height="64"><path d="M245.04192 358.74944c-1.74976 1.74976-1.84192 3.03872-1.84192 50.6304 0 47.04 0.09216 48.88192 1.9328 53.85216 1.01376 2.76224 3.22304 7.08864 4.87936 9.48224 3.95904 5.7984 56.6144 81.74464 62.4128 89.93792 7.45728 10.67776 16.84736 24.20992 38.57152 55.6928 11.32288 16.47744 22.92224 32.21888 25.6832 35.072 5.43104 5.52448 12.79616 9.75872 21.0816 12.24448 6.44352 1.84064 19.14624 1.9328 26.32704 0.09216 17.48992-4.60288 32.21888-21.44896 34.5216-39.49184 0.45952-4.04992 0.82816-31.85152 0.736-64.8064-0.09216-52.65536 0-58.17856 1.472-63.24224 3.22176-10.86208 10.7712-19.60704 21.26464-24.57856 6.16832-2.94528 6.90432-3.03744 17.4912-3.03744 10.67776 0 11.32288 0.09216 17.21344 3.03744 3.3152 1.56544 7.6416 4.51072 9.66656 6.44352 2.02496 1.9328 11.5072 14.8224 21.0816 28.62976 16.66048 23.93344 59.37408 85.33504 70.144 100.89216 2.76224 4.04992 9.20576 13.34784 14.26944 20.71168 5.0624 7.36512 11.13856 15.74144 13.44 18.688 4.69504 6.07488 13.44 12.2432 21.72544 15.3728 6.90304 2.57792 20.98816 3.49824 28.16768 1.84064 12.33536-2.85312 25.13152-12.61056 30.9312-23.5648 5.70752-10.7712 5.7984-11.32288 5.7984-76.3136 0-65.2672 0.1856-67.47648 5.7088-76.68224 6.53568-10.7712 16.66176-17.12256 29.5488-18.59584 7.36512-0.82816 8.92928-1.56416 11.87584-5.0624 1.472-1.6576 1.65632-5.89184 1.65632-52.7488v-50.99776l-2.6688-2.6688c-2.48576-2.48576-3.22176-2.67008-9.5744-2.67008-19.60704 0-36.7296 12.88704-44.09472 33.1392l-2.11712 5.984-0.18304 61.21728c-0.09216 33.69216-0.4608 62.96448-0.73728 65.08288-1.38112 9.66528-10.5856 22.27712-19.6992 26.97216-16.7552 8.46848-36.9152 4.7872-48.6976-8.8384-2.11712-2.48448-13.53216-18.41024-25.2224-35.34848-19.23968-27.89248-28.0768-40.50432-46.7648-67.2-6.81216-9.66656-8.46848-12.15104-29.64096-42.80576-8.3776-12.15104-16.66304-23.10528-19.424-25.59104-9.02144-8.46976-20.06784-12.61184-33.32352-12.61184-13.99296 0-23.19872 3.68256-33.50912 13.34784-4.23424 4.04992-7.456 8.10112-9.664 12.42752-5.98528 11.32288-6.07616 12.15104-6.07616 77.7856 0 61.67808-0.09216 63.51872-4.14336 71.34336-5.15456 10.12608-13.25568 17.12256-23.38176 20.34432-13.80864 4.23424-30.1952 0.18432-39.8592-9.94176-1.84192-1.9328-10.7712-14.26816-19.79264-27.43296-9.1136-13.16352-27.616-39.8592-41.2416-59.37536-13.62304-19.51488-34.24384-49.15712-45.74976-65.81888-11.59936-16.7552-21.8176-30.9312-22.64576-31.57504-2.20928-1.6576-5.43104-1.38112-7.54816 0.736z" p-id="87344" fill="#2c2c2c"></path></svg>