<?xml version="1.0" standalone="no"?><!DOCTYPE svg PUBLIC "-//W3C//DTD SVG 1.1//EN" "http://www.w3.org/Graphics/SVG/1.1/DTD/svg11.dtd"><svg t="1772278610086" class="icon" viewBox="0 0 1024 1024" version="1.1" xmlns="http://www.w3.org/2000/svg" p-id="13697" xmlns:xlink="http://www.w3.org/1999/xlink" width="64" height="64"><path d="M512 1024c282.784 0 512-229.216 512-512S794.784 0 512 0 0 229.216 0 512 229.216 1024 512 1024zM512 96c229.76 0 416 186.24 416 416s-186.24 416-416 416S96 741.76 96 512 282.24 96 512 96zM542.752 711.04C682.976 683.328 791.84 619.488 831.2 534.432 809.536 702.4 669.664 832 500.352 832 381.088 832 276.48 767.712 217.44 671.04 287.872 726.112 412 736.864 542.752 711.04ZM640 352A2 3 2520 1 0 768 352 2 3 2520 1 0 640 352zM352 371.488C310.208 371.488 274.656 387.168 261.472 408.992 257.952 403.136 256 376.832 256 370.24 256 339.2 298.976 314.016 352 314.016 405.024 314.016 448 339.2 448 370.24 448 376.832 446.048 403.136 442.528 408.992 429.344 387.168 393.792 371.488 352 371.488Z" fill="#000000" p-id="13698"></path></svg>