<?xml version="1.0" standalone="no"?><!DOCTYPE svg PUBLIC "-//W3C//DTD SVG 1.1//EN" "http://www.w3.org/Graphics/SVG/1.1/DTD/svg11.dtd"><svg t="1771912833888" class="icon" viewBox="0 0 1024 1024" version="1.1" xmlns="http://www.w3.org/2000/svg" p-id="64112" xmlns:xlink="http://www.w3.org/1999/xlink" width="64" height="64"><path d="M538.7 687.5l70.6-150.7 61.2 130.6 138.7-295.9c3.2-6.7 0.2-14.7-6.5-17.9-1.8-0.8-3.7-1.3-5.7-1.3H658.6L590.7 497l-70.6 150.7v-0.1l-85.2 181.7c-14.9 36.1-56.2 53.2-92.3 38.3-17.3-7.2-31.1-20.9-38.3-38.3L299 818 74.7 339.6c-18.9-40.3-1.5-88.3 39-107.2 10.7-5 22.4-7.6 34.2-7.6h246.6c41.8 0 79.9 24.2 97.6 62l9.3 19.9-70.7 150.6-41.9-89.3c-4.4-9.5-13.9-15.5-24.4-15.5H243.2c-7.4 0-13.5 6-13.5 13.4 0 2 0.4 3.9 1.3 5.7l138.7 295.9 79.8-170.3-0.1-0.3 70.7-150.6 0.1 0.1 28-59.7c17.7-37.8 55.8-62 97.6-62h246.6c44.6 0 80.8 36.1 80.8 80.6 0 11.8-2.6 23.5-7.6 34.2l-229.7 490c-14.9 36.1-56.3 53.3-92.3 38.4-17.3-7.2-31.1-20.9-38.3-38.3v-0.1l-66.6-142z" fill="#ED1515" p-id="64113"></path></svg>