<?xml version="1.0" standalone="no"?><!DOCTYPE svg PUBLIC "-//W3C//DTD SVG 1.1//EN" "http://www.w3.org/Graphics/SVG/1.1/DTD/svg11.dtd"><svg t="1772081357548" class="icon" viewBox="0 0 1024 1024" version="1.1" xmlns="http://www.w3.org/2000/svg" p-id="11960" xmlns:xlink="http://www.w3.org/1999/xlink" width="64" height="64"><path d="M869.603556 677.546667c-10.24 51.655111-30.833778 87.893333-46.307556 113.777777-5.12 5.12-15.416889 20.650667-20.536889 25.827556-5.12 5.12-20.593778 20.650667-25.770667 20.650667-25.713778 20.707556-56.604444 36.238222-108.088888 51.768889-61.724444 15.473778-123.448889 20.650667-154.339556 15.473777-30.833778 0-92.615111 0-154.339556-15.530666a264.021333 264.021333 0 0 1-108.088888-51.712c-5.12-5.12-20.593778-15.473778-25.713778-20.650667-5.12-5.176889-15.416889-20.707556-20.593778-25.884444-15.416889-25.827556-36.010667-62.008889-46.307556-113.777778-15.416889-67.242667-15.416889-129.308444-15.416888-165.489778 0-36.181333 0-98.247111 15.416888-165.546667 10.24-51.655111 30.890667-87.893333 46.307556-113.777777 0-10.24 10.296889-20.650667 20.593778-31.004445 5.12-5.12 20.593778-20.650667 25.713778-20.650667 25.713778-20.707556 56.604444-36.238222 108.088888-51.768888C421.944889 113.777778 483.669333 108.657778 514.56 113.777778c30.890667 0 92.615111 0 154.396444 15.530666a264.021333 264.021333 0 0 1 108.088889 51.712c5.12 5.12 20.536889 15.530667 25.713778 20.650667 5.12 5.176889 15.36 20.707556 20.536889 25.884445 15.473778 25.884444 36.067556 62.008889 46.307556 113.777777 15.473778 67.242667 15.473778 129.308444 15.473777 165.546667 0 41.301333 0 103.367111-15.473777 170.666667zM1024 512c0-201.671111-56.604444-315.448889-144.099556-393.102222C776.988444 25.941333 653.482667 0 509.44 0 365.340444 0 241.777778 25.884444 138.922667 118.897778 56.604444 196.608 0 310.385778 0 512s56.604444 315.448889 144.099556 393.102222C247.011556 998.058667 370.517333 1024 514.56 1024c144.099556 0 267.605333-25.884444 370.517333-118.897778C967.395556 827.392 1024 713.614222 1024 512z" fill="#D64236" p-id="11961"></path><path d="M432.128 311.637333S426.837333 468.024889 512 477.752889c0 0 95.800889 0 127.772444-112.355556h117.077334s-26.624 131.982222-149.048889 136.817778c0 0-15.928889 4.892444 0 24.462222 0 0 117.134222 117.248 117.134222 185.685334h-143.758222s-5.290667-171.064889-138.353778-166.115556c0 0-58.595556 0-53.248 122.140445H267.150222s0-136.817778 133.063111-156.387556c0 0 15.928889 0 10.638223-14.677333 0 0-133.12-122.140444-117.077334-180.792889l138.353778-4.892445z" fill="#D64236" p-id="11962"></path></svg>