<?xml version="1.0" standalone="no"?><!DOCTYPE svg PUBLIC "-//W3C//DTD SVG 1.1//EN" "http://www.w3.org/Graphics/SVG/1.1/DTD/svg11.dtd"><svg t="1771906626266" class="icon" viewBox="0 0 1024 1024" version="1.1" xmlns="http://www.w3.org/2000/svg" p-id="29833" xmlns:xlink="http://www.w3.org/1999/xlink" width="64" height="64"><path d="M258.56 765.44c-24.064-23.552-20.48-31.744 71.168-174.08 9.216-13.824 25.6-39.424 36.352-56.32s28.672-44.032 39.424-60.416c15.872-24.064 18.432-31.744 13.824-37.376s-3.072-7.168 9.728-7.168c8.704 0 18.944 3.072 22.528 6.656s30.72 24.576 60.416 46.592c88.064 65.536 103.424 79.872 96.256 88.576-4.096 5.12-4.096 8.704-1.024 10.752 6.656 4.608 54.784 43.52 58.368 47.104 1.536 1.536 10.752 8.704 20.48 15.36 28.672 19.968 73.216 56.32 82.944 67.584 13.824 15.36 11.776 38.4-4.096 52.736l-13.824 12.8H270.848l-12.288-12.8z" fill="#00DFA6" p-id="29834"></path><path d="M583.168 566.784c-6.656-6.656-41.472-33.792-76.288-60.416-35.328-26.112-69.632-53.248-76.8-59.392-7.168-6.656-14.336-11.776-15.872-11.776-2.048 0-13.824-8.192-26.112-18.432-30.72-25.088-32.256-26.624-78.336-60.928-55.808-41.984-58.88-45.568-58.88-68.608 0-15.872 3.072-22.528 13.824-31.232 13.312-10.24 16.384-10.752 253.952-9.216l240.128 1.536 9.728 12.288c5.12 6.656 9.728 17.92 9.728 25.6 0 13.824-2.56 18.944-53.76 101.376-16.896 27.136-35.328 56.832-40.96 66.048s-20.48 33.28-33.28 54.272c-26.112 43.008-46.08 70.656-50.688 70.656-1.536 0-9.216-5.632-16.384-11.776z" fill="#6668FF" p-id="29835"></path></svg>